                                                                        S      1
,,9HChip Lock,9HChip Lock,7Hunknown,7Hunknown,32,38,7,99,15,,1.,2,2HMM, G      1
1,0.08,15H20160619.083732,0.01,10000.,7Hunknown,7Hunknown,11,0,;        G      2
     186       1                                                00000000D      1
     186            -271       1       0                               0D      2
     514       2                                                00010000D      3
     514                       2       1                               0D      4
     510       4                                                00010000D      5
     510            -271       1       1                               0D      6
     510       5                                                00010000D      7
     510            -271       1       1                               0D      8
     510       6                                                00010000D      9
     510            -271       1       1                               0D     10
     510       7                                                00010000D     11
     510            -271       1       1                               0D     12
     510       8                                                00010000D     13
     510            -271       1       1                               0D     14
     510       9                                                00010000D     15
     510            -271       1       1                               0D     16
     510      10                                                00010000D     17
     510            -271       1       1                               0D     18
     510      11                                                00010000D     19
     510            -271       1       1                               0D     20
     510      12                                                00010000D     21
     510            -271       1       1                               0D     22
     510      13                                                00010000D     23
     510            -271       1       1                               0D     24
     510      14                                                00010000D     25
     510            -271       1       1                               0D     26
     510      15                                                00010000D     27
     510            -271       1       1                               0D     28
     510      16                                                00010000D     29
     510            -271       1       1                               0D     30
     510      17                                                00010000D     31
     510            -271       1       1                               0D     32
     510      18                                                00010000D     33
     510            -271       1       1                               0D     34
     510      19                                                00010000D     35
     510            -271       1       1                               0D     36
     510      20                                                00010000D     37
     510            -271       1       1                               0D     38
     510      21                                                00010000D     39
     510            -271       1       1                               0D     40
     510      22                                                00010000D     41
     510            -271       1       1                               0D     42
     510      23                                                00010000D     43
     510            -271       1       1                               0D     44
     510      24                                                00010000D     45
     510            -271       1       1                               0D     46
     510      25                                                00010000D     47
     510            -271       1       1                               0D     48
     510      26                                                00010000D     49
     510            -271       1       1                               0D     50
     508      27                                                00010000D     51
     508                       1       1                               0D     52
     508      28                                                00010000D     53
     508                       1       1                               0D     54
     508      29                                                00010000D     55
     508                       1       1                               0D     56
     508      30                                                00010000D     57
     508                       1       1                               0D     58
     508      31                                                00010000D     59
     508                       1       1                               0D     60
     508      32                                                00010000D     61
     508                       1       1                               0D     62
     508      33                                                00010000D     63
     508                       1       1                               0D     64
     508      34                                                00010000D     65
     508                       1       1                               0D     66
     508      35                                                00010000D     67
     508                       1       1                               0D     68
     508      36                                                00010000D     69
     508                       1       1                               0D     70
     508      37                                                00010000D     71
     508                       1       1                               0D     72
     508      38                                                00010000D     73
     508                       1       1                               0D     74
     508      39                                                00010000D     75
     508                       1       1                               0D     76
     508      40                                                00010000D     77
     508                       1       1                               0D     78
     508      41                                                00010000D     79
     508                       2       1                               0D     80
     508      43                                                00010000D     81
     508                       1       1                               0D     82
     508      44                                                00010000D     83
     508                       1       1                               0D     84
     508      45                                                00010000D     85
     508                       1       1                               0D     86
     508      46                                                00010000D     87
     508                       1       1                               0D     88
     508      47                                                00010000D     89
     508                       2       1                               0D     90
     508      49                                                00010000D     91
     508                       1       1                               0D     92
     508      50                                                00010000D     93
     508                       1       1                               0D     94
     508      51                                                00010000D     95
     508                       2       1                               0D     96
     508      53                                                00010000D     97
     508                       1       1                               0D     98
     508      54                                                00010000D     99
     508                       1       1                               0D    100
     508      55                                                00010000D    101
     508                       2       1                               0D    102
     126      57                                                00010000D    103
     126       0               3       0                               0D    104
     126      60                                                00010000D    105
     126       0               2       0                               0D    106
     126      62                                                00010000D    107
     126       0               2       0                               0D    108
     126      64                                                00010000D    109
     126       0               2       0                               0D    110
     126      66                                                00010000D    111
     126       0               2       0                               0D    112
     126      68                                                00010000D    113
     126       0               3       0                               0D    114
     126      71                                                00010000D    115
     126       0               2       0                               0D    116
     126      73                                                00010000D    117
     126       0               2       0                               0D    118
     126      75                                                00010000D    119
     126       0               2       0                               0D    120
     126      77                                                00010000D    121
     126       0               2       0                               0D    122
     126      79                                                00010000D    123
     126       0               4       0                               0D    124
     126      83                                                00010000D    125
     126       0               2       0                               0D    126
     126      85                                                00010000D    127
     126       0               4       0                               0D    128
     126      89                                                00010000D    129
     126       0               2       0                               0D    130
     126      91                                                00010000D    131
     126       0               3       0                               0D    132
     126      94                                                00010000D    133
     126       0               2       0                               0D    134
     126      96                                                00010000D    135
     126       0               8       0                               0D    136
     126     104                                                00010000D    137
     126       0               2       0                               0D    138
     126     106                                                00010000D    139
     126       0               8       0                               0D    140
     126     114                                                00010000D    141
     126       0               4       0                               0D    142
     126     118                                                00010000D    143
     126       0               2       0                               0D    144
     126     120                                                00010000D    145
     126       0               3       0                               0D    146
     126     123                                                00010000D    147
     126       0               8       0                               0D    148
     126     131                                                00010000D    149
     126       0               8       0                               0D    150
     126     139                                                00010000D    151
     126       0               4       0                               0D    152
     126     143                                                00010000D    153
     126       0              12       0                               0D    154
     126     155                                                00010000D    155
     126       0               4       0                               0D    156
     126     159                                                00010000D    157
     126       0               6       0                               0D    158
     126     165                                                00010000D    159
     126       0               2       0                               0D    160
     126     167                                                00010000D    161
     126       0               4       0                               0D    162
     126     171                                                00010000D    163
     126       0               2       0                               0D    164
     126     173                                                00010000D    165
     126       0               2       0                               0D    166
     126     175                                                00010000D    167
     126       0              10       0                               0D    168
     126     185                                                00010000D    169
     126       0               2       0                               0D    170
     126     187                                                00010000D    171
     126       0               3       0                               0D    172
     126     190                                                00010000D    173
     126       0               5       0                               0D    174
     126     195                                                00010000D    175
     126       0               2       0                               0D    176
     126     197                                                00010000D    177
     126       0               2       0                               0D    178
     126     199                                                00010000D    179
     126       0               2       0                               0D    180
     126     201                                                00010000D    181
     126       0               2       0                               0D    182
     126     203                                                00010000D    183
     126       0               3       0                               0D    184
     126     206                                                00010000D    185
     126       0               2       0                               0D    186
     126     208                                                00010000D    187
     126       0               2       0                               0D    188
     126     210                                                00010000D    189
     126       0               2       0                               0D    190
     126     212                                                00010000D    191
     126       0               2       0                               0D    192
     126     214                                                00010000D    193
     126       0               2       0                               0D    194
     126     216                                                00010000D    195
     126       0               2       0                               0D    196
     126     218                                                00010000D    197
     126       0               2       0                               0D    198
     126     220                                                00010000D    199
     126       0               2       0                               0D    200
     126     222                                                00010000D    201
     126       0               2       0                               0D    202
     126     224                                                00010000D    203
     126       0               3       0                               0D    204
     126     227                                                00010000D    205
     126       0               2       0                               0D    206
     126     229                                                00010000D    207
     126       0               2       0                               0D    208
     126     231                                                00010000D    209
     126       0               2       0                               0D    210
     126     233                                                00010000D    211
     126       0               2       0                               0D    212
     126     235                                                00010000D    213
     126       0               2       0                               0D    214
     126     237                                                00010000D    215
     126       0               2       0                               0D    216
     126     239                                                00010000D    217
     126       0               2       0                               0D    218
     128     241                                                00010000D    219
     128       0    -271       6       0                               0D    220
     128     247                                                00010000D    221
     128       0    -271       5       0                               0D    222
     128     252                                                00010000D    223
     128       0    -271       6       0                               0D    224
     128     258                                                00010000D    225
     128       0    -271       5       0                               0D    226
     128     263                                                00010000D    227
     128       0    -271       5       0                               0D    228
     128     268                                                00010000D    229
     128       0    -271      13       0                               0D    230
     128     281                                                00010000D    231
     128       0    -271       6       0                               0D    232
     128     287                                                00010000D    233
     128       0    -271      12       0                               0D    234
     128     299                                                00010000D    235
     128       0    -271       5       0                               0D    236
     128     304                                                00010000D    237
     128       0    -271       5       0                               0D    238
     128     309                                                00010000D    239
     128       0    -271      19       0                               0D    240
     128     328                                                00010000D    241
     128       0    -271       4       0                               0D    242
     128     332                                                00010000D    243
     128       0    -271       9       0                               0D    244
     128     341                                                00010000D    245
     128       0    -271       3       0                               0D    246
     128     344                                                00010000D    247
     128       0    -271       3       0                               0D    248
     128     347                                                00010000D    249
     128       0    -271       4       0                               0D    250
     128     351                                                00010000D    251
     128       0    -271       3       0                               0D    252
     128     354                                                00010000D    253
     128       0    -271       3       0                               0D    254
     128     357                                                00010000D    255
     128       0    -271       3       0                               0D    256
     128     360                                                00010000D    257
     128       0    -271       3       0                               0D    258
     128     363                                                00010000D    259
     128       0    -271       4       0                               0D    260
     128     367                                                00010000D    261
     128       0    -271       3       0                               0D    262
     128     370                                                00010000D    263
     128       0    -271       3       0                               0D    264
     502     373                                                00010000D    265
     502                      14       1                               0D    266
     504     387                                                00010001D    267
     504                      17       1                               0D    268
     406     404                                                00000000D    269
     406                       1      15                               0D    270
     314     405                                                00000200D    271
     314                       2       0                               0D    272
186,3,1,0,0,1,269;                                                     1P      1
514,23,5,1,7,1,9,1,11,1,13,1,15,1,17,1,19,1,21,1,23,1,25,1,27,1,       3P      2
29,1,31,1,33,1,35,1,37,1,39,1,41,1,43,1,45,1,47,1,49,1;                3P      3
510,219,1,1,51;                                                        5P      4
510,221,1,1,53;                                                        7P      5
510,223,1,1,55;                                                        9P      6
510,225,1,1,57;                                                       11P      7
510,227,1,1,59;                                                       13P      8
510,229,1,1,61;                                                       15P      9
510,231,1,1,63;                                                       17P     10
510,233,1,1,65;                                                       19P     11
510,235,2,1,67,69;                                                    21P     12
510,237,1,1,71;                                                       23P     13
510,239,1,1,73;                                                       25P     14
510,241,1,1,75;                                                       27P     15
510,243,1,1,77;                                                       29P     16
510,245,1,1,79;                                                       31P     17
510,247,1,1,81;                                                       33P     18
510,249,2,1,83,85;                                                    35P     19
510,251,1,1,87;                                                       37P     20
510,253,2,1,89,91;                                                    39P     21
510,255,1,1,93;                                                       41P     22
510,257,1,1,95;                                                       43P     23
510,259,1,1,97;                                                       45P     24
510,261,1,1,99;                                                       47P     25
510,263,1,1,101;                                                      49P     26
508,4,0,267,1,1,0,0,267,2,0,0,0,267,3,0,0,0,267,4,0,0;                51P     27
508,3,0,267,5,0,0,0,267,3,1,0,0,267,6,0,0;                            53P     28
508,4,0,267,7,1,0,0,267,8,0,0,0,267,9,0,0,0,267,10,0,0;               55P     29
508,3,0,267,11,0,0,0,267,9,1,0,0,267,12,0,0;                          57P     30
508,4,0,267,13,0,0,0,267,14,1,0,0,267,15,1,0,0,267,16,0,0;            59P     31
508,4,0,267,17,0,0,0,267,18,1,0,0,267,19,1,0,0,267,14,0,0;            61P     32
508,4,0,267,20,0,0,0,267,21,1,0,0,267,22,1,0,0,267,18,0,0;            63P     33
508,4,0,267,23,0,0,0,267,16,1,0,0,267,24,1,0,0,267,21,0,0;            65P     34
508,4,0,267,24,0,0,0,267,15,0,0,0,267,19,0,0,0,267,22,0,0;            67P     35
508,4,0,267,25,0,0,0,267,26,0,0,0,267,27,0,0,0,267,28,0,0;            69P     36
508,4,0,267,27,1,0,0,267,29,1,0,0,267,30,0,0,0,267,31,0,0;            71P     37
508,4,0,267,26,1,0,0,267,32,1,0,0,267,33,0,0,0,267,29,0,0;            73P     38
508,4,0,267,25,1,0,0,267,34,1,0,0,267,35,0,0,0,267,32,0,0;            75P     39
508,4,0,267,28,1,0,0,267,31,1,0,0,267,36,0,0,0,267,34,0,0;            77P     40
508,8,0,267,37,1,0,0,267,38,1,0,0,267,39,1,0,0,267,40,1,0,0,267,      79P     41
41,1,0,0,267,1,0,0,0,267,42,1,0,0,267,43,1,0;                         79P     42
508,4,0,267,44,0,0,0,267,45,0,0,0,267,46,0,0,0,267,38,0,0;            81P     43
508,4,0,267,46,1,0,0,267,47,0,0,0,267,48,0,0,0,267,39,0,0;            83P     44
508,4,0,267,35,1,0,0,267,36,1,0,0,267,30,1,0,0,267,33,1,0;            85P     45
508,4,0,267,48,1,0,0,267,49,0,0,0,267,50,0,0,0,267,40,0,0;            87P     46
508,8,0,267,2,1,0,0,267,41,0,0,0,267,50,1,0,0,267,51,0,0,0,267,       89P     47
10,1,0,0,267,11,1,0,0,267,52,0,0,0,267,6,1,0;                         89P     48
508,4,0,267,13,1,0,0,267,23,1,0,0,267,20,1,0,0,267,17,1,0;            91P     49
508,4,0,267,5,1,0,0,267,52,1,0,0,267,12,1,0,0,267,53,0,0;             93P     50
508,6,0,267,4,1,0,0,267,53,1,0,0,267,8,1,0,0,267,54,0,0,0,267,        95P     51
55,0,0,0,267,42,0,0;                                                  95P     52
508,4,0,267,55,1,0,0,267,56,0,0,0,267,57,0,0,0,267,43,0,0;            97P     53
508,4,0,267,57,1,0,0,267,58,0,0,0,267,44,1,0,0,267,37,0,0;            99P     54
508,8,0,267,58,1,0,0,267,56,1,0,0,267,54,1,0,0,267,7,0,0,0,267,      101P     55
51,1,0,0,267,49,1,0,0,267,47,1,0,0,267,45,1,0;                       101P     56
126,1,1,0,0,1,0,0.,0.,0.311144765372083,0.311144765372083,1.,1.,     103P     57
-10.,5.,5.,-10.,3.,7.38350718518843,0.,0.311144765372083,0.,0.,      103P     58
0.;                                                                  103P     59
126,1,1,0,0,1,0,-0.1,-0.1,0.5,0.5,1.,1.,-4.,3.,7.38350718518843,     105P     60
-10.,3.,7.38350718518843,-0.1,0.5,0.,0.,0.;                          105P     61
126,1,1,0,0,1,0,0.,0.,0.311144765372083,0.311144765372083,1.,1.,     107P     62
-4.,5.,5.,-4.,3.,7.38350718518843,0.,0.311144765372083,0.,0.,0.;     107P     63
126,1,1,0,0,1,0,-1.,-1.,-0.4,-0.4,1.,1.,-10.,5.,5.,-4.,5.,5.,        109P     64
-1.,-0.4,0.,0.,0.;                                                   109P     65
126,1,1,0,0,1,0,-0.05,-0.05,0.15,0.15,1.,1.,-4.,5.,5.,-4.,3.,5.,     111P     66
-0.05,0.15,0.,0.,0.;                                                 111P     67
126,1,1,0,0,1,0,-0.0595876796297108,-0.0595876796297108,             113P     68
0.178763038889132,0.178763038889132,1.,1.,-4.,3.,5.,-4.,3.,          113P     69
7.38350718518843,-0.0595876796297108,0.178763038889132,0.,0.,0.;     113P     70
126,1,1,0,0,1,0,0.,0.,0.311144765372083,0.311144765372083,1.,1.,     115P     71
10.,3.,7.38350718518843,10.,5.,5.,0.,0.311144765372083,0.,0.,0.;     115P     72
126,1,1,0,0,1,0,0.4,0.4,1.,1.,1.,1.,4.,5.,5.,10.,5.,5.,0.4,1.,       117P     73
0.,0.,0.;                                                            117P     74
126,1,1,0,0,1,0,0.,0.,0.311144765372083,0.311144765372083,1.,1.,     119P     75
4.,3.,7.38350718518843,4.,5.,5.,0.,0.311144765372083,0.,0.,0.;       119P     76
126,1,1,0,0,1,0,-0.5,-0.5,0.1,0.1,1.,1.,10.,3.,7.38350718518844,     121P     77
4.,3.,7.38350718518844,-0.5,0.1,0.,0.,0.;                            121P     78
126,1,1,0,0,1,0,-0.178763038889132,-0.178763038889132,               123P     79
0.0595876796297108,0.0595876796297108,1.,1.,4.,3.,                   123P     80
7.38350718518843,4.,3.,5.,-0.178763038889132,0.0595876796297108,     123P     81
0.,0.,0.;                                                            123P     82
126,1,1,0,0,1,0,-0.15,-0.15,0.05,0.05,1.,1.,4.,3.,5.,4.,5.,5.,       125P     83
-0.15,0.05,0.,0.,0.;                                                 125P     84
126,1,1,0,0,1,0,0.900000022351742,0.900000022351742,                 127P     85
1.60000002235174,1.60000002235174,1.,1.,4.35,3.,                     127P     86
23.0000004470348,4.35,3.,30.0000004470348,0.900000022351742,         127P     87
1.60000002235174,0.,0.,0.;                                           127P     88
126,1,1,0,0,1,0,0.,0.,0.2,0.2,1.,1.,4.35,3.,23.0000004470348,        129P     89
4.35,0.999999999999998,23.0000004470348,0.,0.2,0.,0.,0.;             129P     90
126,1,1,0,0,1,0,-0.7,-0.7,0.,0.,1.,1.,4.35,0.999999999999998,        131P     91
23.0000004470348,4.35,0.999999999999998,30.0000004470348,-0.7,       131P     92
0.,0.,0.,0.;                                                         131P     93
126,1,1,0,0,1,0,0.,0.,0.2,0.2,1.,1.,4.35,3.,30.0000004470348,        133P     94
4.35,0.999999999999998,30.0000004470348,0.,0.2,0.,0.,0.;             133P     95
126,4,2,0,0,0,0,-3.14159265358979,-3.14159265358979,                 135P     96
-3.14159265358979,-1.5707963267949,-1.5707963267949,                 135P     97
7.76315644407388D-33,7.76315644407388D-33,7.76315644407388D-33,      135P     98
1.,0.707106781186548,1.,0.707106781186548,1.,-4.35,3.,               135P     99
23.0000004470348,-4.35,3.,18.6500004470348,6.94987058516123D-16,     135P    100
3.,18.6500004470348,4.35,3.,18.6500004470348,4.35,3.,                135P    101
23.0000004470348,-3.14159265358979,7.76315644407388D-33,0.,0.,       135P    102
0.;                                                                  135P    103
126,1,1,0,0,1,0,0.,0.,0.2,0.2,1.,1.,-4.35,3.,23.0000004470348,       137P    104
-4.35,0.999999999999998,23.0000004470348,0.,0.2,0.,0.,0.;            137P    105
126,4,2,0,0,0,0,-3.14159265358979,-3.14159265358979,                 139P    106
-3.14159265358979,-1.5707963267949,-1.5707963267949,0.,0.,0.,1.,     139P    107
0.707106781186548,1.,0.707106781186548,1.,-4.35,                     139P    108
0.999999999999998,23.0000004470348,-4.35,0.999999999999998,          139P    109
18.6500004470348,6.94987058516123D-16,0.999999999999998,             139P    110
18.6500004470348,4.35,0.999999999999998,18.6500004470348,4.35,       139P    111
0.999999999999998,23.0000004470348,-3.14159265358979,0.,0.,0.,       139P    112
0.;                                                                  139P    113
126,1,1,0,0,1,0,-1.25000002235174,-1.25000002235174,                 141P    114
-0.550000022351742,-0.550000022351742,1.,1.,-4.35,3.,                141P    115
30.0000004470348,-4.35,3.,23.0000004470348,-1.25000002235174,        141P    116
-0.550000022351742,0.,0.,0.;                                         141P    117
126,1,1,0,0,1,0,0.,0.,0.2,0.2,1.,1.,-4.35,3.,30.0000004470348,       143P    118
-4.35,0.999999999999998,30.0000004470348,0.,0.2,0.,0.,0.;            143P    119
126,1,1,0,0,1,0,-0.7,-0.7,0.,0.,1.,1.,-4.35,0.999999999999997,       145P    120
30.0000004470348,-4.35,0.999999999999998,23.0000004470348,-0.7,      145P    121
0.,0.,0.,0.;                                                         145P    122
126,4,2,0,0,0,0,-3.14159265358979,-3.14159265358979,                 147P    123
-3.14159265358979,-1.5707963267949,-1.5707963267949,                 147P    124
-7.76315644407388D-33,-7.76315644407388D-33,                         147P    125
-7.76315644407388D-33,1.,0.707106781186548,1.,0.707106781186548,     147P    126
1.,4.35,3.,30.0000004470348,4.35,3.,34.3500004470348,                147P    127
-2.66360678814549D-16,3.,34.3500004470348,-4.35,3.,                  147P    128
34.3500004470348,-4.35,3.,30.0000004470348,-3.14159265358979,        147P    129
-7.76315644407388D-33,0.,0.,0.;                                      147P    130
126,4,2,0,0,0,0,-3.14159265358979,-3.14159265358979,                 149P    131
-3.14159265358979,-1.5707963267949,-1.5707963267949,0.,0.,0.,1.,     149P    132
0.707106781186548,1.,0.707106781186548,1.,4.35,                      149P    133
0.999999999999998,30.0000004470348,4.35,0.999999999999997,           149P    134
34.3500004470348,-2.66360678814549D-16,0.999999999999997,            149P    135
34.3500004470348,-4.35,0.999999999999997,34.3500004470348,-4.35,     149P    136
0.999999999999998,30.0000004470348,-3.14159265358979,0.,0.,0.,       149P    137
0.;                                                                  149P    138
126,1,1,0,0,1,0,-0.474750599542654,-0.474750599542654,               151P    139
0.175000022351742,0.175000022351742,1.,1.,2.5,0.999999999999997,     151P    140
29.497506218944,2.5,0.999999999999998,23.,-0.474750599542654,        151P    141
0.175000022351742,0.,0.,0.;                                          151P    142
126,6,2,0,0,0,0,-0.198354522158805,-0.198354522158805,               153P    143
-0.198354522158805,0.981079377143663,0.981079377143663,              153P    144
2.16051327644613,2.16051327644613,3.3399471757486,                   153P    145
3.3399471757486,3.3399471757486,1.,0.831098123993189,1.,             153P    146
0.83109812399319,1.,0.831098123993189,1.,-2.5,0.999999999999998,     153P    147
29.497506218944,-2.83624159315685,0.999999999999998,                 153P    148
31.1703706693766,-1.41812079657842,0.999999999999997,                153P    149
32.1193002161826,-6.93889390390723D-16,0.999999999999997,            153P    150
33.0682297629887,1.41812079657842,0.999999999999997,                 153P    151
32.1193002161826,2.83624159315685,0.999999999999998,                 153P    152
31.1703706693766,2.5,0.999999999999998,29.497506218944,              153P    153
-0.198354522158805,3.3399471757486,0.,0.,0.;                         153P    154
126,1,1,0,0,1,0,-0.499875333298939,-0.499875333298939,               155P    155
0.149875288595456,0.149875288595456,1.,1.,-2.5,                      155P    156
0.999999999999998,23.,-2.5,0.999999999999998,29.497506218944,        155P    157
-0.499875333298939,0.149875288595456,0.,0.,0.;                       155P    158
126,4,2,0,0,0,0,0.,0.,0.,1.5707963267949,1.5707963267949,            157P    159
3.14159265358979,3.14159265358979,3.14159265358979,1.,               157P    160
0.707106781186549,1.,0.707106781186548,1.,2.5,0.999999999999998,     157P    161
23.,2.5,0.999999999999998,20.5,2.91858727971564D-16,                 157P    162
0.999999999999998,20.5,-2.5,0.999999999999998,20.5,-2.5,             157P    163
0.999999999999998,23.,0.,3.14159265358979,0.,0.,0.;                  157P    164
126,1,1,0,0,1,0,0.2,0.2,0.63,0.63,1.,1.,-2.5,0.999999999999998,      159P    165
29.497506218944,-2.5,-3.3,29.497506218944,0.2,0.63,0.,0.,0.;         159P    166
126,1,1,0,0,1,0,-0.999875310947198,-0.999875310947198,               161P    167
-0.350124689052802,-0.350124689052802,1.,1.,-2.5,-3.3,23.,-2.5,      161P    168
-3.3,29.497506218944,-0.999875310947198,-0.350124689052802,0.,       161P    169
0.,0.;                                                               161P    170
126,1,1,0,0,1,0,0.2,0.2,0.63,0.63,1.,1.,-2.5,0.999999999999998,      163P    171
23.,-2.5,-3.3,23.,0.2,0.63,0.,0.,0.;                                 163P    172
126,1,1,0,0,1,0,0.2,0.2,0.63,0.63,1.,1.,2.5,0.999999999999998,       165P    173
29.497506218944,2.5,-3.3,29.497506218944,0.2,0.63,0.,0.,0.;          165P    174
126,6,2,0,0,0,0,-0.198354522158805,-0.198354522158805,               167P    175
-0.198354522158805,0.981079377143663,0.981079377143663,              167P    176
2.16051327644613,2.16051327644613,3.3399471757486,                   167P    177
3.3399471757486,3.3399471757486,1.,0.831098123993189,1.,             167P    178
0.83109812399319,1.,0.831098123993189,1.,-2.5,-3.3,                  167P    179
29.497506218944,-2.83624159315685,-3.3,31.1703706693766,             167P    180
-1.41812079657842,-3.3,32.1193002161826,-6.93889390390723D-16,       167P    181
-3.3,33.0682297629887,1.41812079657842,-3.3,32.1193002161826,        167P    182
2.83624159315685,-3.3,31.1703706693766,2.5,-3.3,29.497506218944,     167P    183
-0.198354522158805,3.3399471757486,0.,0.,0.;                         167P    184
126,1,1,0,0,1,0,0.2,0.2,0.63,0.63,1.,1.,2.5,0.999999999999998,       169P    185
23.,2.5,-3.3,23.,0.2,0.63,0.,0.,0.;                                  169P    186
126,1,1,0,0,1,0,0.0252493781056047,0.0252493781056047,0.675,         171P    187
0.675,1.,1.,2.5,-3.3,29.497506218944,2.5,-3.3,23.,                   171P    188
0.0252493781056047,0.675,0.,0.,0.;                                   171P    189
126,4,2,0,0,0,0,0.,0.,0.,1.5707963267949,1.5707963267949,            173P    190
3.14159265358979,3.14159265358979,3.14159265358979,1.,               173P    191
0.707106781186549,1.,0.707106781186548,1.,2.5,-3.3,23.,2.5,-3.3,     173P    192
20.5,2.91858727971564D-16,-3.3,20.5,-2.5,-3.3,20.5,-2.5,-3.3,        173P    193
23.,0.,3.14159265358979,0.,0.,0.;                                    173P    194
126,1,1,0,0,1,0,-0.7,-0.7,0.,0.,1.,1.,-10.,0.,-7.,-10.,0.,0.,        175P    195
-0.7,0.,0.,0.,0.;                                                    175P    196
126,1,1,0,0,1,0,0.,0.,0.33,0.33,1.,1.,-10.,0.,0.,-10.,-3.3,0.,       177P    197
0.,0.33,0.,0.,0.;                                                    177P    198
126,1,1,0,0,1,0,0.,0.,3.65,3.65,1.,1.,-10.,-3.3,0.,-10.,-3.3,        179P    199
36.5,0.,3.65,0.,0.,0.;                                               179P    200
126,1,1,0,0,1,0,0.,0.,0.63,0.63,1.,1.,-10.,-3.3,36.5,-10.,3.,        181P    201
36.5,0.,0.63,0.,0.,0.;                                               181P    202
126,1,1,0,0,1,0,0.,0.,2.91164928148116,2.91164928148116,1.,1.,       183P    203
-10.,3.,36.5,-10.,3.,7.38350718518843,0.,2.91164928148116,0.,0.,     183P    204
0.;                                                                  183P    205
126,1,1,0,0,1,0,-1.2,-1.2,0.,0.,1.,1.,-10.,5.,5.,-10.,5.,-7.,        185P    206
-1.2,0.,0.,0.,0.;                                                    185P    207
126,1,1,0,0,1,0,-0.5,-0.5,0.,0.,1.,1.,-10.,5.,-6.99999999999999,     187P    208
-10.,0.,-7.,-0.5,0.,0.,0.,0.;                                        187P    209
126,1,1,0,0,1,0,-1.,-1.,1.,1.,1.,1.,10.,0.,0.,-10.,0.,0.,-1.,1.,     189P    210
0.,0.,0.;                                                            189P    211
126,1,1,0,0,1,0,-0.33,-0.33,0.,0.,1.,1.,10.,-3.3,0.,10.,0.,0.,       191P    212
-0.33,0.,0.,0.,0.;                                                   191P    213
126,1,1,0,0,1,0,-1.,-1.,1.,1.,1.,1.,-10.,-3.3,0.,10.,-3.3,0.,        193P    214
-1.,1.,0.,0.,0.;                                                     193P    215
126,1,1,0,0,1,0,-3.65,-3.65,0.,0.,1.,1.,10.,-3.3,36.5,10.,-3.3,      195P    216
0.,-3.65,0.,0.,0.,0.;                                                195P    217
126,1,1,0,0,1,0,-1.,-1.,1.,1.,1.,1.,-10.,-3.3,36.5,10.,-3.3,         197P    218
36.5,-1.,1.,0.,0.,0.;                                                197P    219
126,1,1,0,0,1,0,-0.63,-0.63,0.,0.,1.,1.,10.,3.,36.5,10.,-3.3,        199P    220
36.5,-0.63,0.,0.,0.,0.;                                              199P    221
126,1,1,0,0,1,0,-1.,-1.,1.,1.,1.,1.,-10.,3.,36.5,10.,3.,36.5,        201P    222
-1.,1.,0.,0.,0.;                                                     201P    223
126,1,1,0,0,1,0,-2.91164928148116,-2.91164928148116,0.,0.,1.,1.,     203P    224
10.,3.,7.38350718518843,10.,3.,36.5,-2.91164928148116,0.,0.,0.,      203P    225
0.;                                                                  203P    226
126,1,1,0,0,1,0,-0.4,-0.4,0.4,0.4,1.,1.,-4.,3.,5.,4.,3.,5.,-0.4,     205P    227
0.4,0.,0.,0.;                                                        205P    228
126,1,1,0,0,1,0,-0.4,-0.4,0.4,0.4,1.,1.,-4.,5.,5.,4.,5.,5.,-0.4,     207P    229
0.4,0.,0.,0.;                                                        207P    230
126,1,1,0,0,1,0,0.,0.,1.2,1.2,1.,1.,10.,5.,-7.,10.,5.,5.,0.,1.2,     209P    231
0.,0.,0.;                                                            209P    232
126,1,1,0,0,1,0,-1.,-1.,1.,1.,1.,1.,-10.,5.,-7.,10.,5.,-7.,-1.,      211P    233
1.,0.,0.,0.;                                                         211P    234
126,1,1,0,0,1,0,0.,0.,0.5,0.5,1.,1.,10.,0.,-7.,10.,5.,               213P    235
-6.99999999999999,0.,0.5,0.,0.,0.;                                   213P    236
126,1,1,0,0,1,0,-1.,-1.,1.,1.,1.,1.,-10.,0.,-7.,10.,0.,-7.,-1.,      215P    237
1.,0.,0.,0.;                                                         215P    238
126,1,1,0,0,1,0,0.,0.,0.7,0.7,1.,1.,10.,0.,0.,10.,0.,-7.,0.,0.7,     217P    239
0.,0.,0.;                                                            217P    240
128,1,1,1,1,0,0,1,0,0,-0.001,-0.001,0.312144765372083,               219P    241
0.312144765372083,-0.001,-0.001,0.601,0.601,1.,1.,1.,1.,-10.01,      219P    242
5.00642787609686,4.99233955556881,-10.01,2.99357212390313,           219P    243
7.39116762961962,-3.99,5.00642787609686,4.99233955556881,-3.99,      219P    244
2.99357212390313,7.39116762961962,-0.001,0.312144765372083,          219P    245
-0.001,0.601;                                                        219P    246
128,1,1,1,1,0,0,1,0,0,-0.120175359259422,-0.120175359259422,         221P    247
0.120175359259422,0.120175359259422,-0.101,-0.101,0.101,0.101,       221P    248
1.,1.,1.,1.,-4.,2.99,7.39350718518843,-4.,2.99,4.99,-4.,5.01,        221P    249
7.39350718518843,-4.,5.01,4.99,-0.120175359259422,                   221P    250
0.120175359259422,-0.101,0.101;                                      221P    251
128,1,1,1,1,0,0,1,0,0,-0.00100000000000061,-0.00100000000000061,     223P    252
0.312144765372083,0.312144765372083,-0.001,-0.001,0.601,0.601,       223P    253
1.,1.,1.,1.,10.01,2.99357212390313,7.39116762961963,10.01,           223P    254
5.00642787609686,4.99233955556881,3.99,2.99357212390313,             223P    255
7.39116762961963,3.99,5.00642787609686,4.99233955556881,             223P    256
-0.00100000000000061,0.312144765372083,-0.001,0.601;                 223P    257
128,1,1,1,1,0,0,1,0,0,-0.120175359259422,-0.120175359259422,         225P    258
0.120175359259422,0.120175359259422,-0.101,-0.101,0.101,0.101,       225P    259
1.,1.,1.,1.,4.,2.99,4.99,4.,2.99,7.39350718518843,4.,5.01,4.99,      225P    260
4.,5.01,7.39350718518843,-0.120175359259422,0.120175359259422,       225P    261
-0.101,0.101;                                                        225P    262
128,1,1,1,1,0,0,1,0,0,-0.001,-0.001,0.701,0.701,                     227P    263
-0.00100000000000011,-0.00100000000000011,0.201,0.201,1.,1.,1.,      227P    264
1.,4.35,3.01,30.0100004470348,4.35,3.01,22.9900004470348,4.35,       227P    265
0.989999999999997,30.0100004470348,4.35,0.989999999999997,           227P    266
22.9900004470348,-0.001,0.701,-0.00100000000000011,0.201;            227P    267
128,1,4,1,2,0,0,0,0,0,-2.64779487926008D-16,                         229P    268
-2.64779487926008D-16,0.459770114942529,0.459770114942529,           229P    269
-3.14159265358979,-3.14159265358979,-3.14159265358979,               229P    270
-1.5707963267949,-1.5707963267949,0.,0.,0.,1.,1.,                    229P    271
0.707106781186548,0.707106781186548,1.,1.,0.707106781186548,         229P    272
0.707106781186548,1.,1.,-4.35,3.,23.0000004470348,-4.35,             229P    273
0.999999999999998,23.0000004470348,-4.35,3.,18.6500004470348,        229P    274
-4.35,0.999999999999998,18.6500004470348,4.28626379701574D-16,       229P    275
3.,18.6500004470348,4.28626379701574D-16,0.999999999999998,          229P    276
18.6500004470348,4.35,3.,18.6500004470348,4.35,                      229P    277
0.999999999999998,18.6500004470348,4.35,3.,23.0000004470348,         229P    278
4.35,0.999999999999998,23.0000004470348,-2.64779487926008D-16,       229P    279
0.459770114942529,-3.14159265358979,0.;                              229P    280
128,1,1,1,1,0,0,1,0,0,-0.00100000000000001,-0.00100000000000001,     231P    281
0.701,0.701,-0.00100000000000006,-0.00100000000000006,0.201,         231P    282
0.201,1.,1.,1.,1.,-4.35,3.01,22.9900004470348,-4.35,3.01,            231P    283
30.0100004470348,-4.35,0.989999999999998,22.9900004470348,-4.35,     231P    284
0.989999999999997,30.0100004470348,-0.00100000000000001,0.701,       231P    285
-0.00100000000000006,0.201;                                          231P    286
128,1,4,1,2,0,0,0,0,0,-2.62644022063202D-16,                         233P    287
-2.62644022063202D-16,0.459770114942529,0.459770114942529,           233P    288
-3.14159265358979,-3.14159265358979,-3.14159265358979,               233P    289
-1.5707963267949,-1.5707963267949,0.,0.,0.,1.,1.,                    233P    290
0.707106781186548,0.707106781186548,1.,1.,0.707106781186548,         233P    291
0.707106781186548,1.,1.,4.35,3.,30.0000004470348,4.35,               233P    292
0.999999999999998,30.0000004470348,4.35,3.,34.3500004470348,         233P    293
4.35,0.999999999999998,34.3500004470348,0.,3.,34.3500004470348,      233P    294
0.,0.999999999999998,34.3500004470348,-4.35,3.,34.3500004470348,     233P    295
-4.35,0.999999999999998,34.3500004470348,-4.35,3.,                   233P    296
30.0000004470348,-4.35,0.999999999999998,30.0000004470348,           233P    297
-2.62644022063202D-16,0.459770114942529,-3.14159265358979,0.;        233P    298
128,1,1,1,1,0,0,1,0,0,-0.436,-0.436,0.436,0.436,-0.786,-0.786,       235P    299
0.786,0.786,1.,1.,1.,1.,4.36,0.999999999999998,18.6400004470348,     235P    300
-4.36,0.999999999999998,18.6400004470348,4.36,0.999999999999997,     235P    301
34.3600004470348,-4.36,0.999999999999997,34.3600004470348,           235P    302
-0.436,0.436,-0.786,0.786;                                           235P    303
128,1,1,1,1,0,0,1,0,0,-0.00100000000000002,-0.00100000000000002,     237P    304
0.650750621894396,0.650750621894396,0.199,0.199,0.631,0.631,1.,      237P    305
1.,1.,1.,-2.5,1.01,22.99,-2.5,1.01,29.507506218944,-2.5,-3.31,       237P    306
22.99,-2.5,-3.31,29.507506218944,-0.00100000000000002,               237P    307
0.650750621894396,0.199,0.631;                                       237P    308
128,1,6,1,2,0,0,0,0,0,0.784313725490196,0.784313725490196,           239P    309
2.47058823529412,2.47058823529412,2.94323813143099,                  239P    310
2.94323813143099,2.94323813143099,4.12267203073346,                  239P    311
4.12267203073346,5.30210593003592,5.30210593003592,                  239P    312
6.48153982933839,6.48153982933839,6.48153982933839,1.,1.,            239P    313
0.831098123993191,0.831098123993191,1.,1.,0.831098123993191,         239P    314
0.831098123993191,1.,1.,0.831098123993191,0.831098123993191,1.,      239P    315
1.,2.5,0.999999999999998,29.497506218944,2.5,-3.3,                   239P    316
29.497506218944,2.83624159315685,0.999999999999998,                  239P    317
31.1703706693766,2.83624159315685,-3.3,31.1703706693766,             239P    318
1.41812079657843,0.999999999999998,32.1193002161826,                 239P    319
1.41812079657843,-3.3,32.1193002161826,0.,0.999999999999998,         239P    320
33.0682297629887,0.,-3.3,33.0682297629887,-1.41812079657842,         239P    321
0.999999999999998,32.1193002161826,-1.41812079657842,-3.3,           239P    322
32.1193002161826,-2.83624159315685,0.999999999999998,                239P    323
31.1703706693766,-2.83624159315685,-3.3,31.1703706693766,-2.5,       239P    324
0.999999999999998,29.497506218944,-2.5,-3.3,29.497506218944,         239P    325
0.784313725490196,2.47058823529412,2.94323813143099,                 239P    326
6.48153982933839;                                                    239P    327
128,1,1,1,1,0,0,1,0,0,-0.001,-0.001,0.650750621894396,               241P    328
0.650750621894396,0.199,0.199,0.631,0.631,1.,1.,1.,1.,2.5,1.01,      241P    329
29.507506218944,2.5,1.01,22.99,2.5,-3.31,29.507506218944,2.5,        241P    330
-3.31,22.99,-0.001,0.650750621894396,0.199,0.631;                    241P    331
128,1,4,1,2,0,0,0,0,0,0.8,0.8,2.52,2.52,-3.14159265358979,           243P    332
-3.14159265358979,-3.14159265358979,-1.5707963267949,                243P    333
-1.5707963267949,0.,0.,0.,1.,1.,0.707106781186548,                   243P    334
0.707106781186548,1.,1.,0.707106781186548,0.707106781186548,1.,      243P    335
1.,-2.5,0.999999999999998,23.,-2.5,-3.3,23.,-2.5,                    243P    336
0.999999999999998,20.5,-2.5,-3.3,20.5,1.38777878078145D-16,          243P    337
0.999999999999998,20.5,1.38777878078145D-16,-3.3,20.5,2.5,           243P    338
0.999999999999998,20.5,2.5,-3.3,20.5,2.5,0.999999999999998,23.,      243P    339
2.5,-3.3,23.,0.8,2.52,-3.14159265358979,0.;                          243P    340
128,1,1,1,1,0,0,1,0,0,-2.176,-2.176,2.176,2.176,-0.416,-0.416,       245P    341
0.416,0.416,1.,1.,1.,1.,-10.,-3.31,-7.01,-10.,-3.31,36.51,-10.,      245P    342
5.01,-7.01,-10.,5.01,36.51,-2.176,2.176,-0.416,0.416;                245P    343
128,1,1,1,1,0,0,1,0,0,-0.001,-0.001,0.331,0.331,-1.001,-1.001,       247P    344
1.001,1.001,1.,1.,1.,1.,-10.01,-3.31,0.,-10.01,0.01,0.,10.01,        247P    345
-3.31,0.,10.01,0.01,0.,-0.001,0.331,-1.001,1.001;                    247P    346
128,1,1,1,1,0,0,1,0,0,-0.001,-0.001,3.651,3.651,-1.001,-1.001,       249P    347
1.001,1.001,1.,1.,1.,1.,-10.01,-3.3,36.51,-10.01,-3.3,               249P    348
-0.0099999999999989,10.01,-3.3,36.51,10.01,-3.3,                     249P    349
-0.0099999999999989,-0.001,3.651,-1.001,1.001;                       249P    350
128,1,1,1,1,0,0,1,0,0,-0.001,-0.001,0.631,0.631,-1.001,-1.001,       251P    351
1.001,1.001,1.,1.,1.,1.,-10.01,3.01,36.5,-10.01,-3.31,36.5,          251P    352
10.01,3.01,36.5,10.01,-3.31,36.5,-0.001,0.631,-1.001,1.001;          251P    353
128,1,1,1,1,0,0,1,0,0,-0.001,-0.001,3.151,3.151,-1.001,-1.001,       253P    354
1.001,1.001,1.,1.,1.,1.,-10.01,3.,4.99,-10.01,3.,36.51,10.01,3.,     253P    355
4.99,10.01,3.,36.51,-0.001,3.151,-1.001,1.001;                       253P    356
128,1,1,1,1,0,0,1,0,0,-0.001,-0.001,0.201,0.201,-0.401,-0.401,       255P    357
0.401,0.401,1.,1.,1.,1.,-4.01,5.01,5.,-4.01,2.99,5.,4.01,5.01,       255P    358
5.,4.01,2.99,5.,-0.001,0.201,-0.401,0.401;                           255P    359
128,1,1,1,1,0,0,1,0,0,-0.001,-0.001,1.201,1.201,-1.001,-1.001,       257P    360
1.001,1.001,1.,1.,1.,1.,-10.01,5.,-7.01,-10.01,5.,5.01,10.01,5.,     257P    361
-7.01,10.01,5.,5.01,-0.001,1.201,-1.001,1.001;                       257P    362
128,1,1,1,1,0,0,1,0,0,-0.001,-0.001,0.501,0.501,-1.001,-1.001,       259P    363
1.001,1.001,1.,1.,1.,1.,-10.01,-0.01,-7.,-10.01,5.01,                259P    364
-6.99999999999999,10.01,-0.01,-7.,10.01,5.01,-6.99999999999999,      259P    365
-0.001,0.501,-1.001,1.001;                                           259P    366
128,1,1,1,1,0,0,1,0,0,-0.001,-0.001,0.701,0.701,-1.001,-1.001,       261P    367
1.001,1.001,1.,1.,1.,1.,-10.01,0.,0.01,-10.01,0.,-7.01,10.01,0.,     261P    368
0.01,10.01,0.,-7.01,-0.001,0.701,-1.001,1.001;                       261P    369
128,1,1,1,1,0,0,1,0,0,-2.176,-2.176,2.176,2.176,-0.416,-0.416,       263P    370
0.416,0.416,1.,1.,1.,1.,10.,-3.31,36.51,10.,-3.31,-7.01,10.,         263P    371
5.01,36.51,10.,5.01,-7.01,-2.176,2.176,-0.416,0.416;                 263P    372
502,38,-10.,5.,5.,-10.,3.,7.38350718518843,-4.,3.,                   265P    373
7.38350718518843,-4.,5.,5.,-4.,3.,5.,10.,3.,7.38350718518843,        265P    374
10.,5.,5.,4.,5.,5.,4.,3.,7.38350718518843,4.,3.,5.,4.35,3.,          265P    375
23.0000004470348,4.35,3.,30.0000004470348,4.35,                      265P    376
0.999999999999998,23.0000004470348,4.35,0.999999999999998,           265P    377
30.0000004470348,-4.35,3.,23.0000004470348,-4.35,                    265P    378
0.999999999999998,23.0000004470348,-4.35,3.,30.0000004470348,        265P    379
-4.35,0.999999999999998,30.0000004470348,2.5,0.999999999999998,      265P    380
29.497506218944,2.5,0.999999999999998,23.,-2.5,                      265P    381
0.999999999999998,29.497506218944,-2.5,0.999999999999998,23.,        265P    382
-2.5,-3.3,29.497506218944,-2.5,-3.3,23.,2.5,-3.3,                    265P    383
29.497506218944,2.5,-3.3,23.,-10.,0.,-7.,-10.,0.,0.,-10.,-3.3,       265P    384
0.,-10.,-3.3,36.5,-10.,3.,36.5,-10.,5.,-7.,10.,0.,0.,10.,-3.3,       265P    385
0.,10.,-3.3,36.5,10.,3.,36.5,10.,5.,-7.,10.,0.,-7.;                  265P    386
504,58,103,265,1,265,2,105,265,3,265,2,107,265,4,265,3,109,265,      267P    387
1,265,4,111,265,4,265,5,113,265,5,265,3,115,265,6,265,7,117,265,     267P    388
8,265,7,119,265,9,265,8,121,265,6,265,9,123,265,9,265,10,125,        267P    389
265,10,265,8,127,265,11,265,12,129,265,11,265,13,131,265,13,265,     267P    390
14,133,265,12,265,14,135,265,15,265,11,137,265,15,265,16,139,        267P    391
265,16,265,13,141,265,17,265,15,143,265,17,265,18,145,265,18,        267P    392
265,16,147,265,12,265,17,149,265,14,265,18,151,265,19,265,20,        267P    393
153,265,21,265,19,155,265,22,265,21,157,265,20,265,22,159,265,       267P    394
21,265,23,161,265,24,265,23,163,265,22,265,24,165,265,19,265,25,     267P    395
167,265,23,265,25,169,265,20,265,26,171,265,25,265,26,173,265,       267P    396
26,265,24,175,265,27,265,28,177,265,28,265,29,179,265,29,265,30,     267P    397
181,265,30,265,31,183,265,31,265,2,185,265,1,265,32,187,265,32,      267P    398
265,27,189,265,33,265,28,191,265,34,265,33,193,265,29,265,34,        267P    399
195,265,35,265,34,197,265,30,265,35,199,265,36,265,35,201,265,       267P    400
31,265,36,203,265,6,265,36,205,265,5,265,10,207,265,4,265,8,209,     267P    401
265,37,265,7,211,265,32,265,37,213,265,38,265,37,215,265,27,265,     267P    402
38,217,265,33,265,38;                                                267P    403
406,1,5HBody1;                                                       269P    404
314,62.7450980392157,62.7450980392157,62.7450980392157,13HSteel      271P    405
- Satin;                                                             271P    406
S      1G      2D    272P    406                                        T      1
