                                                                        S      1
,,16HBreadboard Mount,16HBreadboard Mount,7Hunknown,7Hunknown,32,38,7,  G      1
99,15,,1.,2,2HMM,1,0.08,15H20160619.082715,0.01,10000.,7Hunknown,7HunknoG      2
wn,11,0,;                                                               G      3
     186       1                                                00000000D      1
     186            -167       1       0                               0D      2
     514       2                                                00010000D      3
     514                       2       1                               0D      4
     510       4                                                00010000D      5
     510            -167       1       1                               0D      6
     510       5                                                00010000D      7
     510            -167       1       1                               0D      8
     510       6                                                00010000D      9
     510            -167       1       1                               0D     10
     510       7                                                00010000D     11
     510            -167       1       1                               0D     12
     510       8                                                00010000D     13
     510            -167       1       1                               0D     14
     510       9                                                00010000D     15
     510            -167       1       1                               0D     16
     510      10                                                00010000D     17
     510            -167       1       1                               0D     18
     510      11                                                00010000D     19
     510            -167       1       1                               0D     20
     510      12                                                00010000D     21
     510            -167       1       1                               0D     22
     510      13                                                00010000D     23
     510            -167       1       1                               0D     24
     510      14                                                00010000D     25
     510            -167       1       1                               0D     26
     510      15                                                00010000D     27
     510            -167       1       1                               0D     28
     510      16                                                00010000D     29
     510            -167       1       1                               0D     30
     510      17                                                00010000D     31
     510            -167       1       1                               0D     32
     508      18                                                00010000D     33
     508                       1       1                               0D     34
     508      19                                                00010000D     35
     508                       1       1                               0D     36
     508      20                                                00010000D     37
     508                       1       1                               0D     38
     508      21                                                00010000D     39
     508                       1       1                               0D     40
     508      22                                                00010000D     41
     508                       2       1                               0D     42
     508      24                                                00010000D     43
     508                       1       1                               0D     44
     508      25                                                00010000D     45
     508                       1       1                               0D     46
     508      26                                                00010000D     47
     508                       2       1                               0D     48
     508      28                                                00010000D     49
     508                       1       1                               0D     50
     508      29                                                00010000D     51
     508                       1       1                               0D     52
     508      30                                                00010000D     53
     508                       2       1                               0D     54
     508      32                                                00010000D     55
     508                       1       1                               0D     56
     508      33                                                00010000D     57
     508                       1       1                               0D     58
     508      34                                                00010000D     59
     508                       1       1                               0D     60
     508      35                                                00010000D     61
     508                       2       1                               0D     62
     508      37                                                00010000D     63
     508                       1       1                               0D     64
     126      38                                                00010000D     65
     126       0               6       0                               0D     66
     126      44                                                00010000D     67
     126       0               3       0                               0D     68
     126      47                                                00010000D     69
     126       0               6       0                               0D     70
     126      53                                                00010000D     71
     126       0               3       0                               0D     72
     126      56                                                00010000D     73
     126       0               3       0                               0D     74
     126      59                                                00010000D     75
     126       0               3       0                               0D     76
     126      62                                                00010000D     77
     126       0               3       0                               0D     78
     126      65                                                00010000D     79
     126       0               5       0                               0D     80
     126      70                                                00010000D     81
     126       0               2       0                               0D     82
     126      72                                                00010000D     83
     126       0               5       0                               0D     84
     126      77                                                00010000D     85
     126       0               2       0                               0D     86
     126      79                                                00010000D     87
     126       0               2       0                               0D     88
     126      81                                                00010000D     89
     126       0               2       0                               0D     90
     126      83                                                00010000D     91
     126       0               2       0                               0D     92
     126      85                                                00010000D     93
     126       0               3       0                               0D     94
     126      88                                                00010000D     95
     126       0               4       0                               0D     96
     126      92                                                00010000D     97
     126       0               2       0                               0D     98
     126      94                                                00010000D     99
     126       0               5       0                               0D    100
     126      99                                                00010000D    101
     126       0               3       0                               0D    102
     126     102                                                00010000D    103
     126       0               8       0                               0D    104
     126     110                                                00010000D    105
     126       0               5       0                               0D    106
     126     115                                                00010000D    107
     126       0               2       0                               0D    108
     126     117                                                00010000D    109
     126       0               2       0                               0D    110
     126     119                                                00010000D    111
     126       0               3       0                               0D    112
     126     122                                                00010000D    113
     126       0               2       0                               0D    114
     126     124                                                00010000D    115
     126       0               8       0                               0D    116
     126     132                                                00010000D    117
     126       0               2       0                               0D    118
     126     134                                                00010000D    119
     126       0               6       0                               0D    120
     126     140                                                00010000D    121
     126       0               5       0                               0D    122
     126     145                                                00010000D    123
     126       0               3       0                               0D    124
     126     148                                                00010000D    125
     126       0               3       0                               0D    126
     126     151                                                00010000D    127
     126       0               3       0                               0D    128
     126     154                                                00010000D    129
     126       0               3       0                               0D    130
     126     157                                                00010000D    131
     126       0               3       0                               0D    132
     128     160                                                00010000D    133
     128       0    -167      11       0                               0D    134
     128     171                                                00010000D    135
     128       0    -167       5       0                               0D    136
     128     176                                                00010000D    137
     128       0    -167       8       0                               0D    138
     128     184                                                00010000D    139
     128       0    -167       4       0                               0D    140
     128     188                                                00010000D    141
     128       0    -167       3       0                               0D    142
     128     191                                                00010000D    143
     128       0    -167       8       0                               0D    144
     128     199                                                00010000D    145
     128       0    -167       4       0                               0D    146
     128     203                                                00010000D    147
     128       0    -167      13       0                               0D    148
     128     216                                                00010000D    149
     128       0    -167       7       0                               0D    150
     128     223                                                00010000D    151
     128       0    -167       4       0                               0D    152
     128     227                                                00010000D    153
     128       0    -167       6       0                               0D    154
     128     233                                                00010000D    155
     128       0    -167       6       0                               0D    156
     128     239                                                00010000D    157
     128       0    -167       4       0                               0D    158
     128     243                                                00010000D    159
     128       0    -167       3       0                               0D    160
     502     246                                                00010000D    161
     502                      10       1                               0D    162
     504     256                                                00010001D    163
     504                      10       1                               0D    164
     406     266                                                00000000D    165
     406                       1      15                               0D    166
     314     267                                                00000200D    167
     314                       2       0                               0D    168
186,3,1,0,0,1,165;                                                     1P      1
514,14,5,1,7,1,9,1,11,1,13,1,15,1,17,1,19,1,21,1,23,1,25,1,27,1,       3P      2
29,1,31,1;                                                             3P      3
510,133,1,1,33;                                                        5P      4
510,135,1,1,35;                                                        7P      5
510,137,1,1,37;                                                        9P      6
510,139,1,1,39;                                                       11P      7
510,141,2,1,41,43;                                                    13P      8
510,143,1,1,45;                                                       15P      9
510,145,1,1,47;                                                       17P     10
510,147,1,1,49;                                                       19P     11
510,149,1,1,51;                                                       21P     12
510,151,1,1,53;                                                       23P     13
510,153,1,1,55;                                                       25P     14
510,155,1,1,57;                                                       27P     15
510,157,1,1,59;                                                       29P     16
510,159,2,1,61,63;                                                    31P     17
508,4,0,163,1,0,0,0,163,2,1,0,0,163,3,1,0,0,163,4,1,0;                33P     18
508,4,0,163,2,0,0,0,163,5,0,0,0,163,6,0,0,0,163,7,0,0;                35P     19
508,4,0,163,8,1,0,0,163,9,1,0,0,163,10,1,0,0,163,11,1,0;              37P     20
508,4,0,163,9,0,0,0,163,12,0,0,0,163,13,1,0,0,163,14,0,0;             39P     21
508,9,0,163,8,0,0,0,163,15,1,0,0,163,16,1,0,0,163,3,0,0,0,163,7,      41P     22
1,0,0,163,17,1,0,0,163,18,0,0,0,163,19,1,0,0,163,12,1,0;              41P     23
508,1,0,163,20,1,0;                                                   43P     24
508,4,0,163,21,1,0,0,163,22,1,0,0,163,18,1,0,0,163,23,1,0;            45P     25
508,5,0,163,23,0,0,0,163,17,0,0,0,163,6,1,0,0,163,24,0,0,0,163,       47P     26
25,0,0;                                                               47P     27
508,4,0,163,26,0,0,0,163,27,1,0,0,163,20,0,0,0,163,27,0,0;            49P     28
508,4,0,163,28,1,0,0,163,24,1,0,0,163,29,1,0,0,163,30,1,0;            51P     29
508,5,0,163,11,0,0,0,163,31,0,0,0,163,30,0,0,0,163,32,1,0,0,163,      53P     30
15,0,0;                                                               53P     31
508,4,0,163,1,1,0,0,163,33,1,0,0,163,29,0,0,0,163,5,1,0;              55P     32
508,4,0,163,4,0,0,0,163,16,0,0,0,163,32,0,0,0,163,33,0,0;             57P     33
508,4,0,163,22,0,0,0,163,34,0,0,0,163,13,0,0,0,163,19,0,0;            59P     34
508,7,0,163,10,0,0,0,163,14,1,0,0,163,34,1,0,0,163,21,0,0,0,163,      61P     35
25,1,0,0,163,28,0,0,0,163,31,1,0;                                     61P     36
508,1,0,163,26,1,0;                                                   63P     37
126,2,2,0,0,0,0,-0.785398163397447,-0.785398163397447,                65P     38
-0.785398163397447,0.785398163397449,0.785398163397449,               65P     39
0.785398163397449,1.,0.707106781186548,1.,1.9,0.6,                    65P     40
-1.49186218934005D-14,1.9,6.93889390390723D-16,                       65P     41
-1.48492329543615D-14,1.9,5.55111512312578D-16,                       65P     42
0.599999999999985,-0.785398163397447,0.785398163397449,0.,0.,0.;      65P     43
126,1,1,0,0,1,0,-0.6675,-0.6675,0.2225,0.2225,1.,1.,1.9,              67P     44
0.600000000000001,-1.5404344466674D-14,-7.,0.600000000000001,         67P     45
-1.5404344466674D-14,-0.6675,0.2225,0.,0.,0.;                         67P     46
126,2,2,0,0,0,0,-0.785398163397447,-0.785398163397447,                69P     47
-0.785398163397447,0.785398163397449,0.785398163397449,               69P     48
0.785398163397449,1.,0.707106781186548,1.,-7.,0.6,                    69P     49
-1.49186218934005D-14,-7.,6.93889390390723D-16,                       69P     50
-1.48492329543615D-14,-7.,5.55111512312578D-16,                       69P     51
0.599999999999985,-0.785398163397447,0.785398163397449,0.,0.,0.;      69P     52
126,1,1,0,0,1,0,-0.2225,-0.2225,0.6675,0.6675,1.,1.,-7.,              71P     53
9.71445146547012D-16,0.599999999999985,1.9,9.71445146547012D-16,      71P     54
0.599999999999985,-0.2225,0.6675,0.,0.,0.;                            71P     55
126,1,1,0,0,1,0,0.,0.,1.19,1.19,1.,1.,1.9,12.5,                       73P     56
-1.33226762955019D-14,1.9,0.600000000000001,                          73P     57
-1.54365409343882D-14,0.,1.19,0.,0.,0.;                               73P     58
126,1,1,0,0,1,0,-0.35,-0.35,0.54,0.54,1.,1.,-7.,12.5,                 75P     59
-1.33226762955019D-14,1.9,12.5,-1.33226762955019D-14,-0.35,0.54,      75P     60
0.,0.,0.;                                                             75P     61
126,1,1,0,0,1,0,-0.565,-0.565,0.625,0.625,1.,1.,-7.,                  77P     62
0.600000000000001,-1.54365409343882D-14,-7.,12.5,                     77P     63
-1.33226762955019D-14,-0.565,0.625,0.,0.,0.;                          77P     64
126,2,2,0,0,0,0,-0.785398163397449,-0.785398163397449,                79P     65
-0.785398163397449,0.78539816339745,0.78539816339745,                 79P     66
0.78539816339745,1.,0.707106781186547,1.,-7.,-3.99999999999999,       79P     67
12.5,-7.,-12.5,12.5,-7.,-12.5,4.,-0.785398163397449,                  79P     68
0.78539816339745,0.,0.,0.;                                            79P     69
126,1,1,0,0,1,0,-0.7,-0.7,0.7,0.7,1.,1.,-7.,-12.5,4.,7.,-12.5,        81P     70
4.,-0.7,0.7,0.,0.,0.;                                                 81P     71
126,2,2,0,0,0,0,-0.78539816339745,-0.78539816339745,                  83P     72
-0.78539816339745,0.785398163397449,0.785398163397449,                83P     73
0.785398163397449,1.,0.707106781186547,1.,7.,-12.5,4.,7.,-12.5,       83P     74
12.5,7.,-3.99999999999999,12.5,-0.78539816339745,                     83P     75
0.785398163397449,0.,0.,0.;                                           83P     76
126,1,1,0,0,1,0,-0.7,-0.7,0.7,0.7,1.,1.,7.,-3.99999999999999,         85P     77
12.5,-7.,-3.99999999999999,12.5,-0.7,0.7,0.,0.,0.;                    85P     78
126,1,1,0,0,1,0,0.,0.,1.65,1.65,1.,1.,-7.,-12.5,-12.5,-7.,-12.5,      87P     79
4.,0.,1.65,0.,0.,0.;                                                  87P     80
126,1,1,0,0,1,0,-0.7,-0.7,0.7,0.7,1.,1.,-7.,-12.5,-12.5,7.,           89P     81
-12.5,-12.5,-0.7,0.7,0.,0.,0.;                                        89P     82
126,1,1,0,0,1,0,-1.65,-1.65,0.,0.,1.,1.,7.,-12.5,4.,7.,-12.5,         91P     83
-12.5,-1.65,0.,0.,0.,0.;                                              91P     84
126,1,1,0,0,1,0,0.850000000000002,0.850000000000002,1.25,1.25,        93P     85
1.,1.,-7.,-3.99999999999999,12.5,-7.,0.,12.5,0.850000000000002,       93P     86
1.25,0.,0.,0.;                                                        93P     87
126,1,1,0,0,1,0,-0.937499999999998,-0.937499999999998,                95P     88
0.252500000000001,0.252500000000001,1.,1.,-7.,                        95P     89
-1.11022302462516D-15,12.5,-7.,1.00364161426114D-15,                  95P     90
0.599999999999985,-0.937499999999998,0.252500000000001,0.,0.,0.;      95P     91
126,1,1,0,0,1,0,1.25,1.25,1.65,1.65,1.,1.,-7.,12.5,                   97P     92
-1.33226762955019D-14,-7.,12.5,-4.,1.25,1.65,0.,0.,0.;                97P     93
126,2,2,0,0,0,0,-0.785398163397449,-0.785398163397449,                99P     94
-0.785398163397449,0.785398163397449,0.785398163397449,               99P     95
0.785398163397449,1.,0.707106781186546,1.,-7.,3.99999999999999,       99P     96
-12.5,-7.,12.5,-12.5,-7.,12.5,-4.,-0.785398163397449,                 99P     97
0.785398163397449,0.,0.,0.;                                           99P     98
126,1,1,0,0,1,0,0.850000000000001,0.850000000000001,2.5,2.5,1.,      101P     99
1.,-7.,3.99999999999999,-12.5,-7.,-12.5,-12.5,0.850000000000001,     101P    100
2.5,0.,0.,0.;                                                        101P    101
126,8,2,0,1,0,0,-3.14159265358979,-3.14159265358979,                 103P    102
-3.14159265358979,-1.5707963267949,-1.5707963267949,0.,0.,           103P    103
1.5707963267949,1.5707963267949,3.14159265358979,                    103P    104
3.14159265358979,3.14159265358979,1.,0.707106781186548,1.,           103P    105
0.707106781186548,1.,0.707106781186547,1.,0.707106781186548,1.,      103P    106
-7.,-6.25,-3.7,-7.,-8.8,-3.7,-7.,-8.8,-6.25,-7.,-8.8,-8.8,-7.,       103P    107
-6.25,-8.8,-7.,-3.7,-8.8,-7.,-3.7,-6.25,-7.,-3.7,-3.7,-7.,-6.25,     103P    108
-3.7,-3.14159265358979,3.14159265358979,0.,0.,0.;                    103P    109
126,2,2,0,0,0,0,-0.785398163397449,-0.785398163397449,               105P    110
-0.785398163397449,0.785398163397449,0.785398163397449,              105P    111
0.785398163397449,1.,0.707106781186546,1.,7.,12.5,-4.,7.,12.5,       105P    112
-12.5,7.,3.99999999999999,-12.5,-0.785398163397449,                  105P    113
0.785398163397449,0.,0.,0.;                                          105P    114
126,1,1,0,0,1,0,-0.7,-0.7,0.7,0.7,1.,1.,7.,3.99999999999999,         107P    115
-12.5,-7.,3.99999999999999,-12.5,-0.7,0.7,0.,0.,0.;                  107P    116
126,1,1,0,0,1,0,-0.7,-0.7,0.7,0.7,1.,1.,-7.,12.5,-4.,7.,12.5,        109P    117
-4.,-0.7,0.7,0.,0.,0.;                                               109P    118
126,1,1,0,0,1,0,-0.7,-0.7,-0.19,-0.19,1.,1.,7.,12.5,                 111P    119
-3.33066907387547D-15,1.9,12.5,-3.33066907387547D-15,-0.7,-0.19,     111P    120
0.,0.,0.;                                                            111P    121
126,1,1,0,0,1,0,-1.65,-1.65,-1.25,-1.25,1.,1.,7.,12.5,-4.,7.,        113P    122
12.5,-4.44089209850063D-15,-1.65,-1.25,0.,0.,0.;                     113P    123
126,8,2,0,1,0,0,-3.14159265358979,-3.14159265358979,                 115P    124
-3.14159265358979,-1.5707963267949,-1.5707963267949,0.,0.,           115P    125
1.5707963267949,1.5707963267949,3.14159265358979,                    115P    126
3.14159265358979,3.14159265358979,1.,0.707106781186548,1.,           115P    127
0.707106781186547,1.,0.707106781186548,1.,0.707106781186548,1.,      115P    128
7.,-6.25,-3.7,7.,-3.7,-3.7,7.,-3.7,-6.25,7.,-3.7,-8.8,7.,-6.25,      115P    129
-8.8,7.,-8.8,-8.8,7.,-8.8,-6.25,7.,-8.8,-3.7,7.,-6.25,-3.7,          115P    130
-3.14159265358979,3.14159265358979,0.,0.,0.;                         115P    131
126,1,1,0,0,1,0,0.,0.,5.49019607843137,5.49019607843137,1.,1.,       117P    132
7.,-6.25,-3.7,-7.,-6.25,-3.7,0.,5.49019607843137,0.,0.,0.;           117P    133
126,2,2,0,0,0,0,-0.785398163397448,-0.785398163397448,               119P    134
-0.785398163397448,0.785398163397447,0.785398163397447,              119P    135
0.785398163397447,1.,0.707106781186548,1.,7.,                        119P    136
2.44249065417534D-14,12.5,7.,12.5,12.5,7.,12.5,                      119P    137
-3.33066907387547D-15,-0.785398163397448,0.785398163397447,0.,       119P    138
0.,0.;                                                               119P    139
126,2,2,0,0,0,0,5.49778714378214,5.49778714378214,                   121P    140
5.49778714378214,7.06858347057704,7.06858347057704,                  121P    141
7.06858347057704,1.,0.707106781186547,1.,1.9,12.5,                   121P    142
-1.77635683940025D-14,1.9,12.5,12.5,1.9,7.7715611723761D-15,         121P    143
12.5,5.49778714378214,7.06858347057704,0.,0.,0.;                     121P    144
126,1,1,0,0,1,0,0.19,0.19,0.7,0.7,1.,1.,1.9,                         123P    145
2.55351295663786D-14,12.5,7.,2.55351295663786D-14,12.5,0.19,0.7,     123P    146
0.,0.,0.;                                                            123P    147
126,1,1,0,0,1,0,-1.25,-1.25,-0.850000000000002,                      125P    148
-0.850000000000002,1.,1.,7.,2.44249065417534D-14,12.5,7.,            125P    149
-3.99999999999999,12.5,-1.25,-0.850000000000002,0.,0.,0.;            125P    150
126,1,1,0,0,1,0,-0.3175,-0.3175,0.5725,0.5725,1.,1.,1.9,             127P    151
-5.55111512312582D-16,12.5,-7.,-5.55111512312582D-16,12.5,           127P    152
-0.3175,0.5725,0.,0.,0.;                                             127P    153
126,1,1,0,0,1,0,0.06,0.06,1.25,1.25,1.,1.,1.9,                       129P    154
2.10202225995696D-15,0.599999999999985,1.9,                          129P    155
-2.46716227694477D-16,12.5,0.06,1.25,0.,0.,0.;                       129P    156
126,1,1,0,0,1,0,-2.5,-2.5,-0.850000000000001,-0.850000000000001,     131P    157
1.,1.,7.,-12.5,-12.5,7.,3.99999999999999,-12.5,-2.5,                 131P    158
-0.850000000000001,0.,0.,0.;                                         131P    159
128,1,2,1,2,0,0,0,0,0,-3.70833333333333,-3.70833333333333,           133P    160
11.125,11.125,-0.785398163397449,-0.785398163397449,                 133P    161
-0.785398163397449,0.785398163397447,0.785398163397447,              133P    162
0.785398163397447,1.,1.,0.707106781186548,0.707106781186548,1.,      133P    163
1.,-7.,5.55111512312578D-16,0.599999999999985,1.9,                   133P    164
5.55111512312578D-16,0.599999999999985,-7.,1.2490009027033D-15,      133P    165
-1.55431223447522D-14,1.9,1.2490009027033D-15,                       133P    166
-1.55431223447522D-14,-7.,0.600000000000001,                         133P    167
-1.49186218934005D-14,1.9,0.600000000000001,                         133P    168
-1.49186218934005D-14,-3.70833333333333,11.125,                      133P    169
-0.785398163397449,0.785398163397447;                                133P    170
128,1,1,1,1,0,0,1,0,0,-0.001,-0.001,0.891,0.891,-0.001,-0.001,       135P    171
1.191,1.191,1.,1.,1.,1.,1.91,12.51,-1.33208999386625D-14,-7.01,      135P    172
12.51,-1.33208999386625D-14,1.91,0.590000000000002,                  135P    173
-1.54383172912276D-14,-7.01,0.590000000000002,                       135P    174
-1.54383172912276D-14,-0.001,0.891,-0.001,1.191;                     135P    175
128,1,2,1,2,0,0,0,0,0,-0.823529411764706,-0.823529411764706,         137P    176
0.823529411764706,0.823529411764706,-0.78539816339745,               137P    177
-0.78539816339745,-0.78539816339745,0.785398163397449,               137P    178
0.785398163397449,0.785398163397449,1.,1.,0.707106781186547,         137P    179
0.707106781186547,1.,1.,-7.,-12.5,4.,7.,-12.5,4.,-7.,-12.5,12.5,     137P    180
7.,-12.5,12.5,-7.,-3.99999999999999,12.5,7.,-3.99999999999999,       137P    181
12.5,-0.823529411764706,0.823529411764706,-0.78539816339745,         137P    182
0.785398163397449;                                                   137P    183
128,1,1,1,1,0,0,1,0,0,0.849000000000002,0.849000000000002,2.501,     139P    184
2.501,-0.701,-0.701,0.701,0.701,1.,1.,1.,1.,-7.01,-12.5,4.01,        139P    185
-7.01,-12.5,-12.51,7.01,-12.5,4.01,7.01,-12.5,-12.51,                139P    186
0.849000000000002,2.501,-0.701,0.701;                                139P    187
128,1,1,1,1,0,0,1,0,0,-1.251,-1.251,1.251,1.251,-1.251,-1.251,       141P    188
1.251,1.251,1.,1.,1.,1.,-7.,-12.51,-12.51,-7.,-12.51,12.51,-7.,      141P    189
12.51,-12.51,-7.,12.51,12.51,-1.251,1.251,-1.251,1.251;              141P    190
128,1,2,1,2,0,0,0,0,0,-0.823529411764706,-0.823529411764706,         143P    191
0.823529411764706,0.823529411764706,-0.785398163397449,              143P    192
-0.785398163397449,-0.785398163397449,0.785398163397449,             143P    193
0.785398163397449,0.785398163397449,1.,1.,0.707106781186547,         143P    194
0.707106781186547,1.,1.,7.,3.99999999999999,-12.5,-7.,               143P    195
3.99999999999999,-12.5,7.,12.5,-12.5,-7.,12.5,-12.5,7.,12.5,-4.,     143P    196
-7.,12.5,-4.,-0.823529411764706,0.823529411764706,                   143P    197
-0.785398163397449,0.785398163397449;                                143P    198
128,1,1,1,1,0,0,1,0,0,0.849000000000001,0.849000000000001,1.251,     145P    199
1.251,-0.701,-0.701,0.701,0.701,1.,1.,1.,1.,-7.01,12.5,-4.01,        145P    200
-7.01,12.5,0.00999999999999446,7.01,12.5,-4.01,7.01,12.5,            145P    201
0.00999999999999446,0.849000000000001,1.251,-0.701,0.701;            145P    202
128,1,8,1,2,0,1,0,0,1,0.,0.,5.49019607843137,5.49019607843137,       147P    203
-3.14159265358979,-3.14159265358979,-3.14159265358979,               147P    204
-1.5707963267949,-1.5707963267949,0.,0.,1.5707963267949,             147P    205
1.5707963267949,3.14159265358979,3.14159265358979,                   147P    206
3.14159265358979,1.,1.,0.707106781186548,0.707106781186548,1.,       147P    207
1.,0.707106781186548,0.707106781186548,1.,1.,0.707106781186548,      147P    208
0.707106781186548,1.,1.,0.707106781186548,0.707106781186548,1.,      147P    209
1.,7.,-6.25,-3.7,-7.,-6.25,-3.7,7.,-3.7,-3.7,-7.,-3.7,-3.7,7.,       147P    210
-3.7,-6.25,-7.,-3.7,-6.25,7.,-3.7,-8.8,-7.,-3.7,-8.8,7.,-6.25,       147P    211
-8.8,-7.,-6.25,-8.8,7.,-8.8,-8.8,-7.,-8.8,-8.8,7.,-8.8,-6.25,        147P    212
-7.,-8.8,-6.25,7.,-8.8,-3.7,-7.,-8.8,-3.7,7.,-6.25,-3.7,-7.,         147P    213
-6.25,-3.7,0.,5.49019607843137,-3.14159265358979,                    147P    214
3.14159265358979;                                                    147P    215
128,1,2,1,2,0,0,0,0,0,0.152,0.152,0.56,0.56,-0.785398163397448,      149P    216
-0.785398163397448,-0.785398163397448,0.785398163397449,             149P    217
0.785398163397449,0.785398163397449,1.,1.,0.707106781186547,         149P    218
0.707106781186547,1.,1.,7.,12.5,-1.66533453693773D-14,1.9,12.5,      149P    219
-1.66533453693773D-14,7.,12.5,12.5,1.9,12.5,12.5,7.,                 149P    220
8.88178419700125D-15,12.5,1.9,8.88178419700125D-15,12.5,0.152,       149P    221
0.56,-0.785398163397448,0.785398163397449;                           149P    222
128,1,1,1,1,0,0,1,0,0,1.249,1.249,1.651,1.651,-0.701,-0.701,         151P    223
0.701,0.701,1.,1.,1.,1.,-7.01,0.0100000000000233,12.5,-7.01,         151P    224
-4.00999999999999,12.5,7.01,0.0100000000000233,12.5,7.01,            151P    225
-4.00999999999999,12.5,1.249,1.651,-0.701,0.701;                     151P    226
128,1,1,1,1,0,0,1,0,0,-0.00100000000000044,-0.00100000000000044,     153P    227
1.251,1.251,-0.00100000000000178,-0.00100000000000178,1.251,         153P    228
1.251,1.,1.,1.,1.,1.9,12.51,12.51,1.9,12.51,-0.0100000000000178,     153P    229
1.9,-0.0100000000000011,12.51,1.9,-0.0099999999999989,               153P    230
-0.0100000000000202,-0.00100000000000044,1.251,                      153P    231
-0.00100000000000178,1.251;                                          153P    232
128,1,1,1,1,0,0,1,0,0,-0.626000000000002,-0.626000000000002,         155P    233
0.565999999999999,0.565999999999999,-0.446,-0.446,0.446,0.446,       155P    234
1.,1.,1.,1.,-7.01,1.00541797110054D-15,0.589999999999985,-7.01,      155P    235
-1.11199938146456D-15,12.51,1.91,1.00541797110054D-15,               155P    236
0.589999999999984,1.91,-1.11199938146456D-15,12.51,                  155P    237
-0.626000000000002,0.565999999999999,-0.446,0.446;                   155P    238
128,1,1,1,1,0,0,1,0,0,-0.00100000000000022,-0.00100000000000022,     157P    239
1.651,1.651,-0.701,-0.701,0.701,0.701,1.,1.,1.,1.,-7.01,-12.51,      157P    240
-12.5,-7.01,4.00999999999999,-12.5,7.01,-12.51,-12.5,7.01,           157P    241
4.00999999999999,-12.5,-0.00100000000000022,1.651,-0.701,0.701;      157P    242
128,1,1,1,1,0,0,1,0,0,-1.251,-1.251,1.251,1.251,-1.251,-1.251,       159P    243
1.251,1.251,1.,1.,1.,1.,7.,-12.51,12.51,7.,-12.51,-12.51,7.,         159P    244
12.51,12.51,7.,12.51,-12.51,-1.251,1.251,-1.251,1.251;               159P    245
502,22,1.9,0.600000000000001,-1.54365409343882D-14,1.9,              161P    246
2.10202225995696D-15,0.599999999999985,-7.,0.600000000000001,        161P    247
-1.54365409343882D-14,-7.,1.00364161426114D-15,                      161P    248
0.599999999999985,1.9,12.5,-1.33226762955019D-14,-7.,12.5,           161P    249
-1.33226762955019D-14,-7.,-3.99999999999999,12.5,-7.,-12.5,4.,       161P    250
7.,-12.5,4.,7.,-3.99999999999999,12.5,-7.,-12.5,-12.5,7.,-12.5,      161P    251
-12.5,-7.,0.,12.5,-7.,12.5,-4.,-7.,3.99999999999999,-12.5,-7.,       161P    252
-6.25,-3.7,7.,12.5,-4.,7.,3.99999999999999,-12.5,7.,12.5,            161P    253
-4.44089209850063D-15,7.,-6.25,-3.7,7.,2.44249065417534D-14,         161P    254
12.5,1.9,0.,12.5;                                                    161P    255
504,34,65,161,1,161,2,67,161,1,161,3,69,161,3,161,4,71,161,4,        163P    256
161,2,73,161,5,161,1,75,161,6,161,5,77,161,3,161,6,79,161,7,161,     163P    257
8,81,161,8,161,9,83,161,9,161,10,85,161,10,161,7,87,161,11,161,      163P    258
8,89,161,11,161,12,91,161,9,161,12,93,161,7,161,13,95,161,13,        163P    259
161,4,97,161,6,161,14,99,161,15,161,14,101,161,15,161,11,103,        163P    260
161,16,161,16,105,161,17,161,18,107,161,18,161,15,109,161,14,        163P    261
161,17,111,161,19,161,5,113,161,17,161,19,115,161,20,161,20,117,     163P    262
161,20,161,16,119,161,21,161,19,121,161,5,161,22,123,161,22,161,     163P    263
21,125,161,21,161,10,127,161,22,161,13,129,161,2,161,22,131,161,     163P    264
12,161,18;                                                           163P    265
406,1,5HBody1;                                                       165P    266
314,62.7450980392157,62.7450980392157,62.7450980392157,13HSteel      167P    267
- Satin;                                                             167P    268
S      1G      3D    168P    268                                        T      1
