                                                                        S      1
,,21HDualHeatStage-Support,21HDualHeatStage-Support,7Hunknown,7Hunknown,G      1
32,38,7,99,15,,1.,2,2HMM,1,0.08,15H20160619.082437,0.01,10000.,7HunknownG      2
,7Hunknown,11,0,;                                                       G      3
     186       1                                                00000000D      1
     186            -239       1       0                               0D      2
     514       2                                                00010000D      3
     514                       2       1                               0D      4
     510       4                                                00010000D      5
     510            -239       1       1                               0D      6
     510       5                                                00010000D      7
     510            -239       1       1                               0D      8
     510       6                                                00010000D      9
     510            -239       1       1                               0D     10
     510       7                                                00010000D     11
     510            -239       1       1                               0D     12
     510       8                                                00010000D     13
     510            -239       1       1                               0D     14
     510       9                                                00010000D     15
     510            -239       1       1                               0D     16
     510      10                                                00010000D     17
     510            -239       1       1                               0D     18
     510      11                                                00010000D     19
     510            -239       1       1                               0D     20
     510      12                                                00010000D     21
     510            -239       1       1                               0D     22
     510      13                                                00010000D     23
     510            -239       1       1                               0D     24
     510      14                                                00010000D     25
     510            -239       1       1                               0D     26
     510      15                                                00010000D     27
     510            -239       1       1                               0D     28
     510      16                                                00010000D     29
     510            -239       1       1                               0D     30
     510      17                                                00010000D     31
     510            -239       1       1                               0D     32
     510      18                                                00010000D     33
     510            -239       1       1                               0D     34
     510      19                                                00010000D     35
     510            -239       1       1                               0D     36
     510      20                                                00010000D     37
     510            -239       1       1                               0D     38
     510      21                                                00010000D     39
     510            -239       1       1                               0D     40
     510      22                                                00010000D     41
     510            -239       1       1                               0D     42
     510      23                                                00010000D     43
     510            -239       1       1                               0D     44
     508      24                                                00010000D     45
     508                       1       1                               0D     46
     508      25                                                00010000D     47
     508                       1       1                               0D     48
     508      26                                                00010000D     49
     508                       1       1                               0D     50
     508      27                                                00010000D     51
     508                       1       1                               0D     52
     508      28                                                00010000D     53
     508                       1       1                               0D     54
     508      29                                                00010000D     55
     508                       1       1                               0D     56
     508      30                                                00010000D     57
     508                       1       1                               0D     58
     508      31                                                00010000D     59
     508                       1       1                               0D     60
     508      32                                                00010000D     61
     508                       1       1                               0D     62
     508      33                                                00010000D     63
     508                       1       1                               0D     64
     508      34                                                00010000D     65
     508                       1       1                               0D     66
     508      35                                                00010000D     67
     508                       1       1                               0D     68
     508      36                                                00010000D     69
     508                       1       1                               0D     70
     508      37                                                00010000D     71
     508                       4       1                               0D     72
     508      41                                                00010000D     73
     508                       1       1                               0D     74
     508      42                                                00010000D     75
     508                       1       1                               0D     76
     508      43                                                00010000D     77
     508                       1       1                               0D     78
     508      44                                                00010000D     79
     508                       1       1                               0D     80
     508      45                                                00010000D     81
     508                       1       1                               0D     82
     508      46                                                00010000D     83
     508                       4       1                               0D     84
     126      50                                                00010000D     85
     126       0               6       0                               0D     86
     126      56                                                00010000D     87
     126       0               2       0                               0D     88
     126      58                                                00010000D     89
     126       0               6       0                               0D     90
     126      64                                                00010000D     91
     126       0               2       0                               0D     92
     126      66                                                00010000D     93
     126       0               3       0                               0D     94
     126      69                                                00010000D     95
     126       0               2       0                               0D     96
     126      71                                                00010000D     97
     126       0               3       0                               0D     98
     126      74                                                00010000D     99
     126       0               2       0                               0D    100
     126      76                                                00010000D    101
     126       0               8       0                               0D    102
     126      84                                                00010000D    103
     126       0               9       0                               0D    104
     126      93                                                00010000D    105
     126       0               2       0                               0D    106
     126      95                                                00010000D    107
     126       0               3       0                               0D    108
     126      98                                                00010000D    109
     126       0               3       0                               0D    110
     126     101                                                00010000D    111
     126       0               2       0                               0D    112
     126     103                                                00010000D    113
     126       0               9       0                               0D    114
     126     112                                                00010000D    115
     126       0               8       0                               0D    116
     126     120                                                00010000D    117
     126       0               2       0                               0D    118
     126     122                                                00010000D    119
     126       0               3       0                               0D    120
     126     125                                                00010000D    121
     126       0               3       0                               0D    122
     126     128                                                00010000D    123
     126       0               2       0                               0D    124
     126     130                                                00010000D    125
     126       0               8       0                               0D    126
     126     138                                                00010000D    127
     126       0               2       0                               0D    128
     126     140                                                00010000D    129
     126       0               9       0                               0D    130
     126     149                                                00010000D    131
     126       0               2       0                               0D    132
     126     151                                                00010000D    133
     126       0               3       0                               0D    134
     126     154                                                00010000D    135
     126       0               3       0                               0D    136
     126     157                                                00010000D    137
     126       0               2       0                               0D    138
     126     159                                                00010000D    139
     126       0               9       0                               0D    140
     126     168                                                00010000D    141
     126       0               8       0                               0D    142
     126     176                                                00010000D    143
     126       0               2       0                               0D    144
     126     178                                                00010000D    145
     126       0               3       0                               0D    146
     126     181                                                00010000D    147
     126       0               3       0                               0D    148
     126     184                                                00010000D    149
     126       0               2       0                               0D    150
     126     186                                                00010000D    151
     126       0               3       0                               0D    152
     126     189                                                00010000D    153
     126       0               2       0                               0D    154
     126     191                                                00010000D    155
     126       0               3       0                               0D    156
     126     194                                                00010000D    157
     126       0               2       0                               0D    158
     126     196                                                00010000D    159
     126       0               2       0                               0D    160
     126     198                                                00010000D    161
     126       0               2       0                               0D    162
     126     200                                                00010000D    163
     126       0               2       0                               0D    164
     126     202                                                00010000D    165
     126       0               2       0                               0D    166
     126     204                                                00010000D    167
     126       0               2       0                               0D    168
     126     206                                                00010000D    169
     126       0               2       0                               0D    170
     126     208                                                00010000D    171
     126       0               2       0                               0D    172
     126     210                                                00010000D    173
     126       0               2       0                               0D    174
     126     212                                                00010000D    175
     126       0               2       0                               0D    176
     126     214                                                00010000D    177
     126       0               2       0                               0D    178
     126     216                                                00010000D    179
     126       0               2       0                               0D    180
     126     218                                                00010000D    181
     126       0               2       0                               0D    182
     126     220                                                00010000D    183
     126       0               2       0                               0D    184
     126     222                                                00010000D    185
     126       0               2       0                               0D    186
     126     224                                                00010000D    187
     126       0               2       0                               0D    188
     126     226                                                00010000D    189
     126       0               2       0                               0D    190
     126     228                                                00010000D    191
     126       0               2       0                               0D    192
     128     230                                                00010000D    193
     128       0    -239       8       0                               0D    194
     128     238                                                00010000D    195
     128       0    -239       4       0                               0D    196
     128     242                                                00010000D    197
     128       0    -239      15       0                               0D    198
     128     257                                                00010000D    199
     128       0    -239       4       0                               0D    200
     128     261                                                00010000D    201
     128       0    -239      13       0                               0D    202
     128     274                                                00010000D    203
     128       0    -239       4       0                               0D    204
     128     278                                                00010000D    205
     128       0    -239      15       0                               0D    206
     128     293                                                00010000D    207
     128       0    -239       4       0                               0D    208
     128     297                                                00010000D    209
     128       0    -239      13       0                               0D    210
     128     310                                                00010000D    211
     128       0    -239       4       0                               0D    212
     128     314                                                00010000D    213
     128       0    -239       4       0                               0D    214
     128     318                                                00010000D    215
     128       0    -239       3       0                               0D    216
     128     321                                                00010000D    217
     128       0    -239       3       0                               0D    218
     128     324                                                00010000D    219
     128       0    -239       3       0                               0D    220
     128     327                                                00010000D    221
     128       0    -239       3       0                               0D    222
     128     330                                                00010000D    223
     128       0    -239       3       0                               0D    224
     128     333                                                00010000D    225
     128       0    -239       3       0                               0D    226
     128     336                                                00010000D    227
     128       0    -239       3       0                               0D    228
     128     339                                                00010000D    229
     128       0    -239       3       0                               0D    230
     128     342                                                00010000D    231
     128       0    -239       3       0                               0D    232
     502     345                                                00010000D    233
     502                      13       1                               0D    234
     504     358                                                00010001D    235
     504                      16       1                               0D    236
     406     374                                                00000000D    237
     406                       1      15                               0D    238
     314     375                                                00000200D    239
     314                       2       0                               0D    240
186,3,1,0,0,1,237;                                                     1P      1
514,20,5,1,7,1,9,1,11,1,13,1,15,1,17,1,19,1,21,1,23,1,25,1,27,1,       3P      2
29,1,31,1,33,1,35,1,37,1,39,1,41,1,43,1;                               3P      3
510,193,1,1,45;                                                        5P      4
510,195,1,1,47;                                                        7P      5
510,197,1,1,49;                                                        9P      6
510,199,1,1,51;                                                       11P      7
510,201,1,1,53;                                                       13P      8
510,203,1,1,55;                                                       15P      9
510,205,1,1,57;                                                       17P     10
510,207,1,1,59;                                                       19P     11
510,209,1,1,61;                                                       21P     12
510,211,1,1,63;                                                       23P     13
510,213,1,1,65;                                                       25P     14
510,215,1,1,67;                                                       27P     15
510,217,1,1,69;                                                       29P     16
510,219,1,1,71;                                                       31P     17
510,221,1,1,73;                                                       33P     18
510,223,1,1,75;                                                       35P     19
510,225,1,1,77;                                                       37P     20
510,227,1,1,79;                                                       39P     21
510,229,1,1,81;                                                       41P     22
510,231,1,1,83;                                                       43P     23
508,4,0,235,1,0,0,0,235,2,0,0,0,235,3,0,0,0,235,4,0,0;                45P     24
508,4,0,235,5,0,0,0,235,6,0,0,0,235,7,0,0,0,235,8,1,0;                47P     25
508,4,0,235,9,0,0,0,235,8,0,0,0,235,10,0,0,0,235,11,1,0;              49P     26
508,4,0,235,12,0,0,0,235,11,0,0,0,235,13,0,0,0,235,14,1,0;            51P     27
508,4,0,235,15,0,0,0,235,14,0,0,0,235,16,0,0,0,235,17,1,0;            53P     28
508,4,0,235,18,0,0,0,235,17,0,0,0,235,19,0,0,0,235,20,0,0;            55P     29
508,4,0,235,21,0,0,0,235,22,0,0,0,235,23,0,0,0,235,24,1,0;            57P     30
508,4,0,235,25,0,0,0,235,24,0,0,0,235,26,0,0,0,235,27,1,0;            59P     31
508,4,0,235,28,0,0,0,235,27,0,0,0,235,29,0,0,0,235,30,1,0;            61P     32
508,4,0,235,31,0,0,0,235,30,0,0,0,235,32,0,0,0,235,33,0,0;            63P     33
508,4,0,235,34,0,0,0,235,35,0,0,0,235,36,0,0,0,235,22,1,0;            65P     34
508,4,0,235,4,1,0,0,235,37,0,0,0,235,38,0,0,0,235,39,0,0;             67P     35
508,4,0,235,2,1,0,0,235,40,0,0,0,235,41,1,0,0,235,42,0,0;             69P     36
508,18,0,235,1,1,0,0,235,39,1,0,0,235,43,1,0,0,235,44,1,0,0,235,      71P     37
5,1,0,0,235,9,1,0,0,235,12,1,0,0,235,15,1,0,0,235,18,1,0,0,235,       71P     38
45,1,0,0,235,34,1,0,0,235,21,1,0,0,235,25,1,0,0,235,28,1,0,0,         71P     39
235,31,1,0,0,235,46,1,0,0,235,47,1,0,0,235,40,1,0;                    71P     40
508,4,0,235,33,1,0,0,235,48,0,0,0,235,49,0,0,0,235,46,0,0;            73P     41
508,4,0,235,20,1,0,0,235,50,0,0,0,235,35,1,0,0,235,45,0,0;            75P     42
508,4,0,235,43,0,0,0,235,38,1,0,0,235,51,0,0,0,235,52,0,0;            77P     43
508,4,0,235,6,1,0,0,235,44,0,0,0,235,52,1,0,0,235,53,0,0;             79P     44
508,4,0,235,47,0,0,0,235,49,1,0,0,235,54,0,0,0,235,41,0,0;            81P     45
508,18,0,235,3,1,0,0,235,42,1,0,0,235,54,1,0,0,235,48,1,0,0,235,      83P     46
32,1,0,0,235,29,1,0,0,235,26,1,0,0,235,23,1,0,0,235,36,1,0,0,         83P     47
235,50,1,0,0,235,19,1,0,0,235,16,1,0,0,235,13,1,0,0,235,10,1,0,       83P     48
0,235,7,1,0,0,235,53,1,0,0,235,51,1,0,0,235,37,1,0;                   83P     49
126,4,2,0,0,0,0,-1.5707963267949,-1.5707963267949,                    85P     50
-1.5707963267949,-4.44089209850063D-16,-4.44089209850063D-16,         85P     51
1.5707963267949,1.5707963267949,1.5707963267949,1.,                   85P     52
0.707106781186549,1.,0.707106781186547,1.,0.,12.5,15.,0.,12.5,        85P     53
10.,0.,17.5,10.,0.,22.5,10.,0.,22.5,15.,-1.5707963267949,             85P     54
1.5707963267949,0.,0.,0.;                                             85P     55
126,1,1,0,0,1,0,0.,0.,0.24,0.24,1.,1.,2.4,12.5,15.,0.,12.5,15.,       87P     56
0.,0.24,0.,0.,0.;                                                     87P     57
126,4,2,0,0,0,0,-1.5707963267949,-1.5707963267949,                    89P     58
-1.5707963267949,4.44089209850063D-16,4.44089209850063D-16,           89P     59
1.5707963267949,1.5707963267949,1.5707963267949,1.,                   89P     60
0.707106781186547,1.,0.707106781186549,1.,2.4,22.5,15.,2.4,22.5,      89P     61
10.,2.4,17.5,10.,2.4,12.5,10.,2.4,12.5,15.,-1.5707963267949,          89P     62
1.5707963267949,0.,0.,0.;                                             89P     63
126,1,1,0,0,1,0,-0.24,-0.24,0.,0.,1.,1.,0.,22.5,15.,2.4,22.5,         91P     64
15.,-0.24,0.,0.,0.,0.;                                                91P     65
126,1,1,0,0,1,0,-1.73125,-1.73125,0.231249999999999,                  93P     66
0.231249999999999,1.,1.,0.,40.,-15.,0.,40.,4.62499999999999,          93P     67
-1.73125,0.231249999999999,0.,0.,0.;                                  93P     68
126,1,1,0,0,1,0,-0.12,-0.12,0.12,0.12,1.,1.,2.4,40.,-15.,0.,40.,      95P     69
-15.,-0.12,0.12,0.,0.,0.;                                             95P     70
126,1,1,0,0,1,0,-0.231249999999999,-0.231249999999999,1.73125,        97P     71
1.73125,1.,1.,2.4,40.,4.62499999999999,2.4,40.,-15.,                  97P     72
-0.231249999999999,1.73125,0.,0.,0.;                                  97P     73
126,1,1,0,0,1,0,0.,0.,0.24,0.24,1.,1.,2.4,40.,4.62499999999999,       99P     74
0.,40.,4.62499999999999,0.,0.24,0.,0.,0.;                             99P     75
126,6,2,0,0,0,0,0.,0.,0.,1.5707963267949,1.5707963267949,            101P     76
3.14159265358979,3.14159265358979,4.71238898038469,                  101P     77
4.71238898038469,4.71238898038469,1.,0.707106781186548,1.,           101P     78
0.707106781186548,1.,0.707106781186538,1.,0.,40.,                    101P     79
4.62499999999999,0.,40.375,4.62499999999999,0.,40.375,               101P     80
4.99999999999999,0.,40.375,5.37499999999999,0.,40.,                  101P     81
5.37499999999999,0.,39.625,5.37499999999999,0.,39.625,               101P     82
4.99999999999999,0.,4.71238898038469,0.,0.,0.;                       101P     83
126,6,2,0,0,0,0,1.5707963267949,1.5707963267949,1.5707963267949,     103P     84
3.14159265358979,3.14159265358979,4.71238898038469,                  103P     85
4.71238898038469,6.28318530717959,6.28318530717959,                  103P     86
6.28318530717959,1.,0.707106781186538,1.,0.707106781186548,1.,       103P     87
0.707106781186548,1.,2.4,39.625,4.99999999999999,2.4,39.625,         103P     88
5.37499999999999,2.4,40.,5.37499999999999,2.4,40.375,                103P     89
5.37499999999999,2.4,40.375,4.99999999999999,2.4,40.375,             103P     90
4.62499999999999,2.4,40.,4.62499999999999,1.5707963267949,           103P     91
6.28318530717959,0.,0.,0.;                                           103P     92
126,1,1,0,0,1,0,0.,0.,0.24,0.24,1.,1.,2.4,39.625,                    105P     93
4.99999999999999,0.,39.625,4.99999999999999,0.,0.24,0.,0.,0.;        105P     94
126,1,1,0,0,1,0,-2.06875,-2.06875,-1.89375,-1.89375,1.,1.,0.,        107P     95
39.625,4.99999999999999,0.,37.875,4.99999999999999,-2.06875,         107P     96
-1.89375,0.,0.,0.;                                                   107P     97
126,1,1,0,0,1,0,1.89375,1.89375,2.06875,2.06875,1.,1.,2.4,           109P     98
37.875,4.99999999999999,2.4,39.625,4.99999999999999,1.89375,         109P     99
2.06875,0.,0.,0.;                                                    109P    100
126,1,1,0,0,1,0,0.,0.,0.24,0.24,1.,1.,2.4,37.875,                    111P    101
4.99999999999999,0.,37.875,4.99999999999999,0.,0.24,0.,0.,0.;        111P    102
126,6,2,0,0,0,0,1.5707963267949,1.5707963267949,1.5707963267949,     113P    103
3.14159265358979,3.14159265358979,4.71238898038469,                  113P    104
4.71238898038469,6.28318530717959,6.28318530717959,                  113P    105
6.28318530717959,1.,0.707106781186541,1.,0.707106781186541,1.,       113P    106
0.707106781186536,1.,0.,37.875,4.99999999999999,0.,37.875,           113P    107
5.37499999999999,0.,37.5,5.37499999999999,0.,37.125,                 113P    108
5.37499999999999,0.,37.125,4.99999999999999,0.,37.125,               113P    109
4.62499999999999,0.,37.5,4.62499999999999,1.5707963267949,           113P    110
6.28318530717959,0.,0.,0.;                                           113P    111
126,6,2,0,0,0,0,0.,0.,0.,1.5707963267949,1.5707963267949,            115P    112
3.14159265358979,3.14159265358979,4.71238898038469,                  115P    113
4.71238898038469,4.71238898038469,1.,0.707106781186541,1.,           115P    114
0.707106781186541,1.,0.707106781186541,1.,2.4,37.5,                  115P    115
4.62499999999999,2.4,37.125,4.62499999999999,2.4,37.125,             115P    116
4.99999999999999,2.4,37.125,5.37499999999999,2.4,37.5,               115P    117
5.37499999999999,2.4,37.875,5.37499999999999,2.4,37.875,             115P    118
4.99999999999999,0.,4.71238898038469,0.,0.,0.;                       115P    119
126,1,1,0,0,1,0,0.,0.,0.24,0.24,1.,1.,2.4,37.5,4.62499999999999,     117P    120
0.,37.5,4.62499999999999,0.,0.24,0.,0.,0.;                           117P    121
126,1,1,0,0,1,0,-1.2125,-1.2125,0.750000000000001,                   119P    122
0.750000000000001,1.,1.,0.,37.5,4.62499999999999,0.,37.5,-15.,       119P    123
-1.2125,0.750000000000001,0.,0.,0.;                                  119P    124
126,1,1,0,0,1,0,-0.750000000000001,-0.750000000000001,1.2125,        121P    125
1.2125,1.,1.,2.4,37.5,-15.,2.4,37.5,4.62499999999999,                121P    126
-0.750000000000001,1.2125,0.,0.,0.;                                  121P    127
126,1,1,0,0,1,0,-0.12,-0.12,0.12,0.12,1.,1.,0.,37.5,-15.,2.4,        123P    128
37.5,-15.,-0.12,0.12,0.,0.,0.;                                       123P    129
126,6,2,0,0,0,0,0.,0.,0.,1.5707963267949,1.5707963267949,            125P    130
3.14159265358979,3.14159265358979,4.71238898038469,                  125P    131
4.71238898038469,4.71238898038469,1.,0.707106781186555,1.,           125P    132
0.707106781186555,1.,0.707106781186555,1.,0.,-16.5,                  125P    133
4.62499999999999,0.,-16.125,4.62499999999999,0.,-16.125,             125P    134
4.99999999999999,0.,-16.125,5.37499999999999,0.,-16.5,               125P    135
5.37499999999999,0.,-16.875,5.37499999999999,0.,-16.875,             125P    136
4.99999999999999,0.,4.71238898038469,0.,0.,0.;                       125P    137
126,1,1,0,0,1,0,0.,0.,0.24,0.24,1.,1.,2.4,-16.5,                     127P    138
4.62499999999999,0.,-16.5,4.62499999999999,0.,0.24,0.,0.,0.;         127P    139
126,6,2,0,0,0,0,1.5707963267949,1.5707963267949,1.5707963267949,     129P    140
3.14159265358979,3.14159265358979,4.71238898038469,                  129P    141
4.71238898038469,6.28318530717959,6.28318530717959,                  129P    142
6.28318530717959,1.,0.707106781186555,1.,0.707106781186555,1.,       129P    143
0.707106781186555,1.,2.4,-16.875,4.99999999999999,2.4,-16.875,       129P    144
5.37499999999999,2.4,-16.5,5.37499999999999,2.4,-16.125,             129P    145
5.37499999999999,2.4,-16.125,4.99999999999999,2.4,-16.125,           129P    146
4.62499999999999,2.4,-16.5,4.62499999999999,1.5707963267949,         129P    147
6.28318530717959,0.,0.,0.;                                           129P    148
126,1,1,0,0,1,0,0.,0.,0.24,0.24,1.,1.,2.4,-16.875,                   131P    149
4.99999999999999,0.,-16.875,4.99999999999999,0.,0.24,0.,0.,0.;       131P    150
126,1,1,0,0,1,0,0.75625,0.75625,0.93125,0.93125,1.,1.,0.,            133P    151
-16.875,4.99999999999999,0.,-18.625,4.99999999999999,0.75625,        133P    152
0.93125,0.,0.,0.;                                                    133P    153
126,1,1,0,0,1,0,-0.93125,-0.93125,-0.75625,-0.75625,1.,1.,2.4,       135P    154
-18.625,4.99999999999999,2.4,-16.875,4.99999999999999,-0.93125,      135P    155
-0.75625,0.,0.,0.;                                                   135P    156
126,1,1,0,0,1,0,0.,0.,0.24,0.24,1.,1.,2.4,-18.625,                   137P    157
4.99999999999999,0.,-18.625,4.99999999999999,0.,0.24,0.,0.,0.;       137P    158
126,6,2,0,0,0,0,1.5707963267949,1.5707963267949,1.5707963267949,     139P    159
3.14159265358979,3.14159265358979,4.71238898038469,                  139P    160
4.71238898038469,6.28318530717959,6.28318530717959,                  139P    161
6.28318530717959,1.,0.707106781186558,1.,0.707106781186558,1.,       139P    162
0.707106781186554,1.,0.,-18.625,4.99999999999999,0.,-18.625,         139P    163
5.37499999999999,0.,-19.,5.37499999999999,0.,-19.375,                139P    164
5.37499999999999,0.,-19.375,4.99999999999999,0.,-19.375,             139P    165
4.62499999999999,0.,-19.,4.62499999999999,1.5707963267949,           139P    166
6.28318530717959,0.,0.,0.;                                           139P    167
126,6,2,0,0,0,0,0.,0.,0.,1.5707963267949,1.5707963267949,            141P    168
3.14159265358979,3.14159265358979,4.71238898038469,                  141P    169
4.71238898038469,4.71238898038469,1.,0.707106781186558,1.,           141P    170
0.707106781186558,1.,0.707106781186558,1.,2.4,-19.,                  141P    171
4.62499999999999,2.4,-19.375,4.62499999999999,2.4,-19.375,           141P    172
4.99999999999999,2.4,-19.375,5.37499999999999,2.4,-19.,              141P    173
5.37499999999999,2.4,-18.625,5.37499999999999,2.4,-18.625,           141P    174
4.99999999999999,0.,4.71238898038469,0.,0.,0.;                       141P    175
126,1,1,0,0,1,0,0.,0.,0.24,0.24,1.,1.,2.4,-19.,4.62499999999999,     143P    176
0.,-19.,4.62499999999999,0.,0.24,0.,0.,0.;                           143P    177
126,1,1,0,0,1,0,-1.2125,-1.2125,0.750000000000001,                   145P    178
0.750000000000001,1.,1.,0.,-19.,4.62499999999999,0.,-19.,-15.,       145P    179
-1.2125,0.750000000000001,0.,0.,0.;                                  145P    180
126,1,1,0,0,1,0,-0.750000000000001,-0.750000000000001,1.2125,        147P    181
1.2125,1.,1.,2.4,-19.,-15.,2.4,-19.,4.62499999999999,                147P    182
-0.750000000000001,1.2125,0.,0.,0.;                                  147P    183
126,1,1,0,0,1,0,-0.12,-0.12,0.12,0.12,1.,1.,0.,-19.,-15.,2.4,        149P    184
-19.,-15.,-0.12,0.12,0.,0.,0.;                                       149P    185
126,1,1,0,0,1,0,-1.73125,-1.73125,0.231249999999999,                 151P    186
0.231249999999999,1.,1.,0.,-16.5,-15.,0.,-16.5,4.62499999999999,     151P    187
-1.73125,0.231249999999999,0.,0.,0.;                                 151P    188
126,1,1,0,0,1,0,-0.12,-0.12,0.12,0.12,1.,1.,2.4,-16.5,-15.,0.,       153P    189
-16.5,-15.,-0.12,0.12,0.,0.,0.;                                      153P    190
126,1,1,0,0,1,0,-0.231249999999999,-0.231249999999999,1.73125,       155P    191
1.73125,1.,1.,2.4,-16.5,4.62499999999999,2.4,-16.5,-15.,             155P    192
-0.231249999999999,1.73125,0.,0.,0.;                                 155P    193
126,1,1,0,0,1,0,-9.,-9.,-6.75,-6.75,1.,1.,2.4,45.,15.,2.4,22.5,      157P    194
15.,-9.,-6.75,0.,0.,0.;                                              157P    195
126,1,1,0,0,1,0,0.,0.,0.24,0.24,1.,1.,0.,45.,15.,2.4,45.,15.,0.,     159P    196
0.24,0.,0.,0.;                                                       159P    197
126,1,1,0,0,1,0,6.75,6.75,9.,9.,1.,1.,0.,22.5,15.,0.,45.,15.,        161P    198
6.75,9.,0.,0.,0.;                                                    161P    199
126,1,1,0,0,1,0,0.,0.,5.75,5.75,1.,1.,0.,-45.,15.,0.,12.5,15.,       163P    200
0.,5.75,0.,0.,0.;                                                    163P    201
126,1,1,0,0,1,0,0.,0.,0.24,0.24,1.,1.,0.,-45.,15.,2.4,-45.,15.,      165P    202
0.,0.24,0.,0.,0.;                                                    165P    203
126,1,1,0,0,1,0,-5.75,-5.75,0.,0.,1.,1.,2.4,12.5,15.,2.4,-45.,       167P    204
15.,-5.75,0.,0.,0.,0.;                                               167P    205
126,1,1,0,0,1,0,0.,0.,3.,3.,1.,1.,0.,45.,15.,0.,45.,-15.,0.,3.,      169P    206
0.,0.,0.;                                                            169P    207
126,1,1,0,0,1,0,0.,0.,0.5,0.5,1.,1.,0.,45.,-15.,0.,40.,-15.,0.,      171P    208
0.5,0.,0.,0.;                                                        171P    209
126,1,1,0,0,1,0,0.75,0.75,6.15,6.15,1.,1.,0.,37.5,-15.,0.,-16.5,     173P    210
-15.,0.75,6.15,0.,0.,0.;                                             173P    211
126,1,1,0,0,1,0,6.4,6.4,9.,9.,1.,1.,0.,-19.,-15.,0.,-45.,-15.,       175P    212
6.4,9.,0.,0.,0.;                                                     175P    213
126,1,1,0,0,1,0,0.,0.,3.,3.,1.,1.,0.,-45.,-15.,0.,-45.,15.,0.,       177P    214
3.,0.,0.,0.;                                                         177P    215
126,1,1,0,0,1,0,-9.,-9.,-6.4,-6.4,1.,1.,2.4,-45.,-15.,2.4,-19.,      179P    216
-15.,-9.,-6.4,0.,0.,0.;                                              179P    217
126,1,1,0,0,1,0,0.,0.,0.24,0.24,1.,1.,0.,-45.,-15.,2.4,-45.,         181P    218
-15.,0.,0.24,0.,0.,0.;                                               181P    219
126,1,1,0,0,1,0,-6.15,-6.15,-0.75,-0.75,1.,1.,2.4,-16.5,-15.,        183P    220
2.4,37.5,-15.,-6.15,-0.75,0.,0.,0.;                                  183P    221
126,1,1,0,0,1,0,-3.,-3.,0.,0.,1.,1.,2.4,45.,-15.,2.4,45.,15.,        185P    222
-3.,0.,0.,0.,0.;                                                     185P    223
126,1,1,0,0,1,0,0.,0.,0.24,0.24,1.,1.,0.,45.,-15.,2.4,45.,-15.,      187P    224
0.,0.24,0.,0.,0.;                                                    187P    225
126,1,1,0,0,1,0,-0.5,-0.5,0.,0.,1.,1.,2.4,40.,-15.,2.4,45.,-15.,     189P    226
-0.5,0.,0.,0.,0.;                                                    189P    227
126,1,1,0,0,1,0,-3.,-3.,0.,0.,1.,1.,2.4,-45.,15.,2.4,-45.,-15.,      191P    228
-3.,0.,0.,0.,0.;                                                     191P    229
128,1,4,1,2,0,0,0,0,0,0.,0.,0.48,0.48,-1.5707963267949,              193P    230
-1.5707963267949,-1.5707963267949,4.44089209850063D-16,              193P    231
4.44089209850063D-16,1.5707963267949,1.5707963267949,                193P    232
1.5707963267949,1.,1.,0.707106781186548,0.707106781186548,1.,1.,     193P    233
0.707106781186548,0.707106781186548,1.,1.,2.4,22.5,15.,0.,22.5,      193P    234
15.,2.4,22.5,10.,0.,22.5,10.,2.4,17.5,10.,0.,17.5,10.,2.4,12.5,      193P    235
10.,0.,12.5,10.,2.4,12.5,15.,0.,12.5,15.,0.,0.48,                    193P    236
-1.5707963267949,1.5707963267949;                                    193P    237
128,1,1,1,1,0,0,1,0,0,-0.001,-0.001,1.9635,1.9635,-0.001,-0.001,     195P    238
0.241,0.241,1.,1.,1.,1.,2.41,40.,-15.01,2.41,40.,                    195P    239
4.63499999999999,-0.01,40.,-15.01,-0.01,40.,4.63499999999999,        195P    240
-0.001,1.9635,-0.001,0.241;                                          195P    241
128,1,6,1,2,0,0,0,0,0,0.,0.,6.39999999999998,6.39999999999998,       197P    242
1.5707963267949,1.5707963267949,1.5707963267949,                     197P    243
3.14159265358979,3.14159265358979,4.71238898038469,                  197P    244
4.71238898038469,6.28318530717959,6.28318530717959,                  197P    245
6.28318530717959,1.,1.,0.707106781186548,0.707106781186548,1.,       197P    246
1.,0.707106781186548,0.707106781186548,1.,1.,0.707106781186548,      197P    247
0.707106781186548,1.,1.,2.4,39.625,4.99999999999999,0.,39.625,       197P    248
4.99999999999999,2.4,39.625,5.37499999999999,0.,39.625,              197P    249
5.37499999999999,2.4,40.,5.37499999999999,0.,40.,                    197P    250
5.37499999999999,2.4,40.375,5.37499999999999,0.,40.375,              197P    251
5.37499999999999,2.4,40.375,4.99999999999999,0.,40.375,              197P    252
4.99999999999999,2.4,40.375,4.62499999999999,0.,40.375,              197P    253
4.62499999999999,2.4,40.,4.62499999999999,0.,40.,                    197P    254
4.62499999999999,0.,6.39999999999998,1.5707963267949,                197P    255
6.28318530717959;                                                    197P    256
128,1,1,1,1,0,0,1,0,0,-0.001,-0.001,0.176,0.176,-0.001,-0.001,       199P    257
0.241,0.241,1.,1.,1.,1.,2.41,39.635,4.99999999999999,2.41,           199P    258
37.865,4.99999999999999,-0.01,39.635,4.99999999999999,-0.01,         199P    259
37.865,4.99999999999999,-0.001,0.176,-0.001,0.241;                   199P    260
128,1,6,1,2,0,0,0,0,0,0.,0.,6.39999999999997,6.39999999999997,       201P    261
0.,0.,0.,1.5707963267949,1.5707963267949,3.14159265358979,           201P    262
3.14159265358979,4.71238898038469,4.71238898038469,                  201P    263
4.71238898038469,1.,1.,0.707106781186548,0.707106781186548,1.,       201P    264
1.,0.707106781186548,0.707106781186548,1.,1.,0.707106781186548,      201P    265
0.707106781186548,1.,1.,2.4,37.5,4.62499999999999,0.,37.5,           201P    266
4.62499999999999,2.4,37.125,4.62499999999999,0.,37.125,              201P    267
4.62499999999999,2.4,37.125,4.99999999999999,0.,37.125,              201P    268
4.99999999999999,2.4,37.125,5.37499999999999,0.,37.125,              201P    269
5.37499999999999,2.4,37.5,5.37499999999999,0.,37.5,                  201P    270
5.37499999999999,2.4,37.875,5.37499999999999,0.,37.875,              201P    271
5.37499999999999,2.4,37.875,4.99999999999999,0.,37.875,              201P    272
4.99999999999999,0.,6.39999999999997,0.,4.71238898038469;            201P    273
128,1,1,1,1,0,0,1,0,0,-0.001,-0.001,1.9635,1.9635,-0.001,-0.001,     203P    274
0.241,0.241,1.,1.,1.,1.,2.41,37.5,4.63499999999998,2.41,37.5,        203P    275
-15.01,-0.01,37.5,4.63499999999998,-0.01,37.5,-15.01,-0.001,         203P    276
1.9635,-0.001,0.241;                                                 203P    277
128,1,6,1,2,0,0,0,0,0,0.,0.,6.39999999999998,6.39999999999998,       205P    278
1.5707963267949,1.5707963267949,1.5707963267949,                     205P    279
3.14159265358979,3.14159265358979,4.71238898038469,                  205P    280
4.71238898038469,6.28318530717959,6.28318530717959,                  205P    281
6.28318530717959,1.,1.,0.707106781186548,0.707106781186548,1.,       205P    282
1.,0.707106781186548,0.707106781186548,1.,1.,0.707106781186548,      205P    283
0.707106781186548,1.,1.,2.4,-16.875,4.99999999999999,0.,-16.875,     205P    284
4.99999999999999,2.4,-16.875,5.37499999999999,0.,-16.875,            205P    285
5.37499999999999,2.4,-16.5,5.37499999999999,0.,-16.5,                205P    286
5.37499999999999,2.4,-16.125,5.37499999999999,0.,-16.125,            205P    287
5.37499999999999,2.4,-16.125,4.99999999999999,0.,-16.125,            205P    288
4.99999999999999,2.4,-16.125,4.62499999999999,0.,-16.125,            205P    289
4.62499999999999,2.4,-16.5,4.62499999999999,0.,-16.5,                205P    290
4.62499999999999,0.,6.39999999999998,1.5707963267949,                205P    291
6.28318530717959;                                                    205P    292
128,1,1,1,1,0,0,1,0,0,-0.001,-0.001,0.176,0.176,-0.001,-0.001,       207P    293
0.241,0.241,1.,1.,1.,1.,2.41,-16.865,4.99999999999999,2.41,          207P    294
-18.635,4.99999999999999,-0.01,-16.865,4.99999999999999,-0.01,       207P    295
-18.635,4.99999999999999,-0.001,0.176,-0.001,0.241;                  207P    296
128,1,6,1,2,0,0,0,0,0,0.,0.,6.39999999999997,6.39999999999997,       209P    297
0.,0.,0.,1.5707963267949,1.5707963267949,3.14159265358979,           209P    298
3.14159265358979,4.71238898038469,4.71238898038469,                  209P    299
4.71238898038469,1.,1.,0.707106781186548,0.707106781186548,1.,       209P    300
1.,0.707106781186548,0.707106781186548,1.,1.,0.707106781186548,      209P    301
0.707106781186548,1.,1.,2.4,-19.,4.62499999999999,0.,-19.,           209P    302
4.62499999999999,2.4,-19.375,4.62499999999999,0.,-19.375,            209P    303
4.62499999999999,2.4,-19.375,4.99999999999999,0.,-19.375,            209P    304
4.99999999999999,2.4,-19.375,5.37499999999999,0.,-19.375,            209P    305
5.37499999999999,2.4,-19.,5.37499999999999,0.,-19.,                  209P    306
5.37499999999999,2.4,-18.625,5.37499999999999,0.,-18.625,            209P    307
5.37499999999999,2.4,-18.625,4.99999999999999,0.,-18.625,            209P    308
4.99999999999999,0.,6.39999999999997,0.,4.71238898038469;            209P    309
128,1,1,1,1,0,0,1,0,0,-0.001,-0.001,1.9635,1.9635,-0.001,-0.001,     211P    310
0.241,0.241,1.,1.,1.,1.,2.41,-19.,4.63499999999999,2.41,-19.,        211P    311
-15.01,-0.01,-19.,4.63499999999999,-0.01,-19.,-15.01,-0.001,         211P    312
1.9635,-0.001,0.241;                                                 211P    313
128,1,1,1,1,0,0,1,0,0,-0.001,-0.001,1.9635,1.9635,-0.001,-0.001,     213P    314
0.241,0.241,1.,1.,1.,1.,2.41,-16.5,-15.01,2.41,-16.5,                213P    315
4.63499999999999,-0.01,-16.5,-15.01,-0.01,-16.5,                     213P    316
4.63499999999999,-0.001,1.9635,-0.001,0.241;                         213P    317
128,1,1,1,1,0,0,1,0,0,-0.001,-0.001,2.251,2.251,-0.001,-0.001,       215P    318
0.241,0.241,1.,1.,1.,1.,-0.01,45.01,15.,-0.01,22.49,15.,2.41,        215P    319
45.01,15.,2.41,22.49,15.,-0.001,2.251,-0.001,0.241;                  215P    320
128,1,1,1,1,0,0,1,0,0,3.249,3.249,9.001,9.001,-0.001,-0.001,         217P    321
0.241,0.241,1.,1.,1.,1.,-0.01,12.51,15.,-0.01,-45.01,15.,2.41,       217P    322
12.51,15.,2.41,-45.01,15.,3.249,9.001,-0.001,0.241;                  217P    323
128,1,1,1,1,0,0,1,0,0,-1.501,-1.501,1.501,1.501,-4.501,-4.501,       219P    324
4.501,4.501,1.,1.,1.,1.,0.,-45.01,-15.01,0.,-45.01,15.01,0.,         219P    325
45.01,-15.01,0.,45.01,15.01,-1.501,1.501,-4.501,4.501;               219P    326
128,1,1,1,1,0,0,1,0,0,-0.001,-0.001,2.601,2.601,-0.001,-0.001,       221P    327
0.241,0.241,1.,1.,1.,1.,-0.01,-45.01,-15.,-0.01,-18.99,-15.,         221P    328
2.41,-45.01,-15.,2.41,-18.99,-15.,-0.001,2.601,-0.001,0.241;         221P    329
128,1,1,1,1,0,0,1,0,0,2.849,2.849,8.251,8.251,-0.001,-0.001,         223P    330
0.241,0.241,1.,1.,1.,1.,-0.01,-16.51,-15.,-0.01,37.51,-15.,2.41,     223P    331
-16.51,-15.,2.41,37.51,-15.,2.849,8.251,-0.001,0.241;                223P    332
128,1,1,1,1,0,0,1,0,0,-0.001,-0.001,3.001,3.001,-0.001,-0.001,       225P    333
0.241,0.241,1.,1.,1.,1.,-0.01,45.,-15.01,-0.01,45.,15.01,2.41,       225P    334
45.,-15.01,2.41,45.,15.01,-0.001,3.001,-0.001,0.241;                 225P    335
128,1,1,1,1,0,0,1,0,0,8.499,8.499,9.001,9.001,-0.001,-0.001,         227P    336
0.241,0.241,1.,1.,1.,1.,-0.01,39.99,-15.,-0.01,45.01,-15.,2.41,      227P    337
39.99,-15.,2.41,45.01,-15.,8.499,9.001,-0.001,0.241;                 227P    338
128,1,1,1,1,0,0,1,0,0,-0.001,-0.001,3.001,3.001,-0.001,-0.001,       229P    339
0.241,0.241,1.,1.,1.,1.,-0.01,-45.,15.01,-0.01,-45.,-15.01,2.41,     229P    340
-45.,15.01,2.41,-45.,-15.01,-0.001,3.001,-0.001,0.241;               229P    341
128,1,1,1,1,0,0,1,0,0,-1.501,-1.501,1.501,1.501,-4.501,-4.501,       231P    342
4.501,4.501,1.,1.,1.,1.,2.4,-45.01,15.01,2.4,-45.01,-15.01,2.4,      231P    343
45.01,15.01,2.4,45.01,-15.01,-1.501,1.501,-4.501,4.501;              231P    344
502,36,0.,12.5,15.,0.,22.5,15.,2.4,12.5,15.,2.4,22.5,15.,0.,40.,     233P    345
-15.,0.,40.,4.62499999999999,2.4,40.,-15.,2.4,40.,                   233P    346
4.62499999999999,0.,39.625,4.99999999999999,2.4,39.625,              233P    347
4.99999999999999,0.,37.875,4.99999999999999,2.4,37.875,              233P    348
4.99999999999999,0.,37.5,4.62499999999999,2.4,37.5,                  233P    349
4.62499999999999,0.,37.5,-15.,2.4,37.5,-15.,0.,-16.5,                233P    350
4.62499999999999,0.,-16.875,4.99999999999999,2.4,-16.5,              233P    351
4.62499999999999,2.4,-16.875,4.99999999999999,0.,-18.625,            233P    352
4.99999999999999,2.4,-18.625,4.99999999999999,0.,-19.,               233P    353
4.62499999999999,2.4,-19.,4.62499999999999,0.,-19.,-15.,2.4,         233P    354
-19.,-15.,0.,-16.5,-15.,2.4,-16.5,-15.,2.4,45.,15.,0.,45.,15.,       233P    355
0.,-45.,15.,2.4,-45.,15.,0.,45.,-15.,0.,-45.,-15.,2.4,-45.,-15.,     233P    356
2.4,45.,-15.;                                                        233P    357
504,54,85,233,1,233,2,87,233,3,233,1,89,233,4,233,3,91,233,2,        235P    358
233,4,93,233,5,233,6,95,233,7,233,5,97,233,8,233,7,99,233,8,233,     235P    359
6,101,233,6,233,9,103,233,10,233,8,105,233,10,233,9,107,233,9,       235P    360
233,11,109,233,12,233,10,111,233,12,233,11,113,233,11,233,13,        235P    361
115,233,14,233,12,117,233,14,233,13,119,233,13,233,15,121,233,       235P    362
16,233,14,123,233,15,233,16,125,233,17,233,18,127,233,19,233,17,     235P    363
129,233,20,233,19,131,233,20,233,18,133,233,18,233,21,135,233,       235P    364
22,233,20,137,233,22,233,21,139,233,21,233,23,141,233,24,233,22,     235P    365
143,233,24,233,23,145,233,23,233,25,147,233,26,233,24,149,233,       235P    366
25,233,26,151,233,27,233,17,153,233,28,233,27,155,233,19,233,28,     235P    367
157,233,29,233,4,159,233,30,233,29,161,233,2,233,30,163,233,31,      235P    368
233,1,165,233,31,233,32,167,233,3,233,32,169,233,30,233,33,171,      235P    369
233,33,233,5,173,233,15,233,27,175,233,25,233,34,177,233,34,233,     235P    370
31,179,233,35,233,26,181,233,34,233,35,183,233,28,233,16,185,        235P    371
233,36,233,29,187,233,33,233,36,189,233,7,233,36,191,233,32,233,     235P    372
35;                                                                  235P    373
406,1,5HBody1;                                                       237P    374
314,62.7450980392157,62.7450980392157,62.7450980392157,13HSteel      239P    375
- Satin;                                                             239P    376
S      1G      3D    240P    376                                        T      1
